<?xml version="1.0" encoding="iso-8859-1"?>
<!-- Generator: Adobe Illustrator 16.0.0, SVG Export Plug-In . SVG Version: 6.00 Build 0)  -->
<!DOCTYPE svg PUBLIC "-//W3C//DTD SVG 1.1//EN" "http://www.w3.org/Graphics/SVG/1.1/DTD/svg11.dtd">
<svg version="1.1" id="Capa_1" xmlns="http://www.w3.org/2000/svg" xmlns:xlink="http://www.w3.org/1999/xlink" x="0px" y="0px"
	 width="856.506px" height="856.506px" viewBox="0 0 856.506 856.506" style="enable-background:new 0 0 856.506 856.506;"
	 xml:space="preserve">
<g>
	<path d="M20,728.816h816.506c11.046,0,20-8.954,20-20V228.013c0-11.046-8.954-20-20-20h-530.81v-60.323c0-11.046-8.954-20-20-20
		H114.253c-11.046,0-20,8.954-20,20v60.323H20c-11.046,0-20,8.954-20,20v480.804C0,719.862,8.954,728.816,20,728.816z
		 M427.027,300.181c93.607,0,169.491,75.884,169.491,169.492s-75.884,169.492-169.491,169.492
		c-93.608,0-169.492-75.884-169.492-169.492S333.419,300.181,427.027,300.181z"/>
</g>
<g>
</g>
<g>
</g>
<g>
</g>
<g>
</g>
<g>
</g>
<g>
</g>
<g>
</g>
<g>
</g>
<g>
</g>
<g>
</g>
<g>
</g>
<g>
</g>
<g>
</g>
<g>
</g>
<g>
</g>
</svg>
