<?xml version="1.0" encoding="UTF-8" standalone="no"?>
<svg
   xmlns:dc="http://purl.org/dc/elements/1.1/"
   xmlns:cc="http://creativecommons.org/ns#"
   xmlns:rdf="http://www.w3.org/1999/02/22-rdf-syntax-ns#"
   xmlns:svg="http://www.w3.org/2000/svg"
   xmlns="http://www.w3.org/2000/svg"
   xmlns:xlink="http://www.w3.org/1999/xlink"
   xmlns:sodipodi="http://sodipodi.sourceforge.net/DTD/sodipodi-0.dtd"
   xmlns:inkscape="http://www.inkscape.org/namespaces/inkscape"
   version="1.1"
   id="Layer_1"
   x="0px"
   y="0px"
   viewBox="0 0 1000 1000"
   xml:space="preserve"
   sodipodi:docname="portada_1.svg"
   width="1000"
   height="1000"
   inkscape:version="1.0.2-2 (e86c870879, 2021-01-15)"
   inkscape:export-filename="C:\Users\Bryan Silva\Documents\MEGA\Cursos - Certificados\Next U\Desarrollador Web\04 Tecnologías Frontend\Proyecto\imagenes\portada_1.png"
   inkscape:export-xdpi="96"
   inkscape:export-ydpi="96"><metadata
   id="metadata237"><rdf:RDF><cc:Work
       rdf:about=""><dc:format>image/svg+xml</dc:format><dc:type
         rdf:resource="http://purl.org/dc/dcmitype/StillImage" /><dc:title></dc:title></cc:Work></rdf:RDF></metadata><defs
   id="defs235" /><sodipodi:namedview
   pagecolor="#ffffff"
   bordercolor="#666666"
   borderopacity="1"
   objecttolerance="10"
   gridtolerance="10"
   guidetolerance="10"
   inkscape:pageopacity="0"
   inkscape:pageshadow="2"
   inkscape:window-width="1366"
   inkscape:window-height="705"
   id="namedview233"
   showgrid="false"
   inkscape:zoom="0.29112554"
   inkscape:cx="-220.40645"
   inkscape:cy="419.89368"
   inkscape:window-x="-8"
   inkscape:window-y="-8"
   inkscape:window-maximized="1"
   inkscape:current-layer="Layer_1" />
<style
   type="text/css"
   id="style2">
	.st0{fill-rule:evenodd;clip-rule:evenodd;fill:#49574E;}
	.st1{fill:none;stroke:#1C2628;stroke-width:2.13;stroke-linecap:round;stroke-linejoin:round;}
	
		.st2{fill-rule:evenodd;clip-rule:evenodd;fill:#F3A140;stroke:#1C2628;stroke-width:2.13;stroke-linecap:round;stroke-linejoin:round;}
	
		.st3{fill-rule:evenodd;clip-rule:evenodd;fill:#1C2628;stroke:#1C2628;stroke-width:2.13;stroke-linecap:round;stroke-linejoin:round;}
	
		.st4{fill-rule:evenodd;clip-rule:evenodd;fill:#F45B49;stroke:#1C2628;stroke-width:2.13;stroke-linecap:round;stroke-linejoin:round;}
	
		.st5{fill-rule:evenodd;clip-rule:evenodd;fill:#FAF6EB;stroke:#1C2628;stroke-width:2.13;stroke-linecap:round;stroke-linejoin:round;}
	.st6{fill-rule:evenodd;clip-rule:evenodd;fill:#FB564C;}
	.st7{fill:none;stroke:#FAF6EB;stroke-width:2.13;stroke-linecap:round;stroke-linejoin:round;}
	.st8{fill-rule:evenodd;clip-rule:evenodd;fill:#F3A13B;}
	.st9{fill-rule:evenodd;clip-rule:evenodd;fill:#FAF6EB;}
	.st10{fill:#FAF6EB;stroke:#1C2628;stroke-width:2.13;stroke-linecap:round;stroke-linejoin:round;}
	.st11{fill-rule:evenodd;clip-rule:evenodd;fill:#F45B49;}
	.st12{clip-path:url(#SVGID_2_);fill:none;stroke:#1C2628;stroke-width:2.13;stroke-linecap:round;stroke-linejoin:round;}
	.st13{fill:none;stroke:#FFFFFF;stroke-width:2.13;stroke-linecap:round;stroke-linejoin:round;}
	.st14{fill:#1C2628;stroke:#1C2628;stroke-width:2.13;stroke-linecap:round;stroke-linejoin:round;}
</style>
<g
   id="g230"
   transform="matrix(1.0371053,0,0,1.0371053,-15.76445,37.763257)">
	<g
   id="g16">
		<path
   class="st0"
   d="m 879.7,712 c 0,-15.5 12.8,-28 28.5,-28 4.6,0 12.9,3 12.9,3 l -0.1,10.5 11.3,-0.6 c 0,0 4.5,9.5 4.5,15 0,15.5 -12.8,28 -28.5,28 -15.9,0.1 -28.6,-12.5 -28.6,-27.9 z"
   id="path4" />
		<path
   class="st0"
   d="m 811.8,757.1 c 15.3,-1.1 28.6,10.9 29.7,26.7 0.3,4.7 -2.1,13.2 -2.1,13.2 l -10.4,0.6 1.4,11.3 c 0,0 -9.1,5.2 -14.6,5.5 -15.3,1.1 -28.6,-10.9 -29.7,-26.7 -1.2,-15.8 10.4,-29.5 25.7,-30.6 z"
   id="path6" />
		<path
   class="st1"
   d="m 856.4,647.6 -2.1,208.8"
   id="path8" />
		<path
   class="st1"
   d="m 835.9,671.5 19,29"
   id="path10" />
		<path
   class="st1"
   d="m 855.7,783.2 46.2,-62"
   id="path12" />
		<path
   class="st1"
   d="m 814,780.6 40.2,56.6"
   id="path14" />
	</g>
	<path
   class="st2"
   d="M 256.7,189.6 H 779.5 V 855.5 H 256.7 Z"
   id="path18" />
	<path
   class="st1"
   d="m 256.8,493.3 520.6,0.2"
   id="path20" />
	<path
   class="st1"
   d="m 256.8,671 520.6,0.2"
   id="path22" />
	<path
   class="st3"
   d="m 248.5,833.2 h 549.6 v 27.4 H 248.5 Z"
   id="path24" />
	<path
   class="st1"
   d="m 519.8,192.6 7.7,662.6"
   id="path26" />
	<path
   class="st4"
   d="m 449.1,646.1 c -15.1,25.1 -64,124.6 -64,124.6 0,0 -28.3,17.2 -63.5,31.5 -22.5,9.1 -56.8,14.3 -59.5,22.3 -7.3,21.8 72.8,4.1 102.2,1.8 29.9,-2.4 78.5,32 106.1,13.7 18,-11.9 -0.7,-40.7 0.9,-56.9 1.6,-16.2 11.6,-126.4 21.8,-139.8"
   id="path28" />
	<path
   class="st3"
   d="m 603.8,687.4 c 0,0 -129.5,-223.8 -209.5,-156.6 -43.6,36.6 -81.8,238.9 -81.8,238.9 l 78.5,17.2 52.4,-85.4 c 0,0 23.3,105.6 66.5,125.8 24.3,11.4 122.6,17.8 170.2,6.8 37,-8.5 36.3,-44.4 36.3,-44.4 z"
   id="path30" />
	<path
   class="st4"
   d="m 409.3,654.4 c -15.1,25.1 -64,124.6 -64,124.6 0,0 -28.3,17.2 -63.5,31.5 -22.5,9.1 -56.8,14.3 -59.5,22.3 -7.4,21.8 57.6,12.5 87,10.2 29.9,-2.4 82.7,11.1 99.7,-2.3 17,-13.4 4.9,-31.2 16.2,-53.9 14.4,-28.9 39.1,-64.7 49.3,-78.1"
   id="path32" />
	<path
   class="st3"
   d="m 526.8,460.7 c -39.6,-39.6 -34,-97.6 -27.3,-103.2 70.7,-58.8 111,10.5 129.6,9.4 45.6,5.6 78.7,25.8 82.5,57.7 3.3,28 0,97.7 -54.3,90.3 -33.5,-11.5 -126.8,9.9 -155.5,-13.6 -15.5,-12.7 -5.6,-104.9 -16.1,-121.8"
   id="path34" />
	<path
   class="st5"
   d="m 779.7,785.8 c 0,0 -0.8,0.5 -2.4,1.3 -10,4.8 -49.9,19.7 -92.5,-22.2 -5.3,-5.2 -10.6,-11.3 -15.9,-18.3 -54.7,-73 -91.3,-85.3 -91.3,-85.3 l -71.7,-132 -3.3,-6 -46.8,-54.7 58.1,-38.9 139.6,28.7 c 0,0 32.3,-27.8 67.8,17 8.1,10.3 16.4,24.3 24.6,43.4 17,39.9 18.5,129.2 20,194.2 1.1,41.9 13.8,72.8 13.8,72.8 z"
   id="path36" />
	<path
   class="st4"
   d="m 597.3,420.1 19.7,37.5 33.9,17.4 c 0,0 -13.2,31.1 -40.7,41.1 -27.5,10 -41.1,1.7 -52.2,-2.2 -11.2,-3.9 -22.1,-21.3 -22.1,-21.3 l 12.5,-20.2 -12.2,-16 z"
   id="path38" />
	<path
   class="st4"
   d="m 589.9,392.7 c -3.7,-11.1 2.7,-14.5 -5.4,-21.5 -14.4,-12.6 -34.1,-17.5 -52.4,-11.2 -20.6,7 -43.4,12.4 -45.4,34.2 -0.8,8.4 9.6,30.9 12.5,39.6 10.4,31 42,48.3 70.6,38.6 18.3,-6.2 30,-16.1 34,-34.9 2.1,-10.4 -10.2,-33.6 -13.9,-44.8 z"
   id="path40" />
	<path
   class="st4"
   d="m 522.2,428.3 c 2.1,10.9 -1.4,22.7 4.9,23.9 8.3,1.5 14,-16.2 13.6,-18.5"
   id="path42" />
	<path
   class="st1"
   d="m 563.9,429.5 c 1.5,9.5 -3.7,15.1 -12,17.1"
   id="path44" />
	<path
   class="st6"
   d="M 620.1,465.8 598.3,425 c 0,0 -35.1,14 -37,27 -1.9,13 23.4,33.9 23.4,33.9 l 20.2,-9.7"
   id="path46" />
	<path
   class="st3"
   d="m 583.9,378.8 c -34.6,31.1 -78.8,9.9 -78.8,9.9 0,0 6.1,34.5 -8.7,49.2 -14.8,14.6 -32.5,-7.4 -25.8,-41.6 6.8,-34.1 50.7,-62.3 75.4,-59.8 20.7,2.2 65.3,17.6 37.9,42.3 z"
   id="path48" />
	<path
   class="st4"
   d="m 575.5,386.1 c -1.7,-6.4 7.3,-10.3 12.1,-8.7 10.1,3.2 19.5,19.3 2.2,26.4"
   id="path50" />
	<path
   class="st7"
   d="m 664.5,422.9 c 18.5,12.9 24.5,12.2 42.4,19.2"
   id="path52" />
	<path
   class="st8"
   d="m 196.2,654.9 c -13.2,-0.7 -10.5,-32 1.5,-34.4 14.3,-2.9 34,19.3 21.2,32.1 -3.8,3.9 -17.5,2.6 -22.7,2.3 z"
   id="path54" />
	<path
   class="st3"
   d="m 537.6,472.8 20.6,1 18.9,-6.9 c 0,0 -7.2,20 -17.3,28.4 -10,8.4 -34.1,8.3 -34.1,8.3 z"
   id="path56" />
	<path
   class="st1"
   d="m 585.9,388.4 c 0.1,0.5 0.2,0.9 0.3,1.4"
   id="path58" />
	<path
   class="st3"
   d="M 722.2,839.5 C 674.6,850.5 573.8,851 549.5,839.7 506.3,819.5 475,715.1 475,715.1 l -42,77.2 -90.6,-28.9 -1.9,-0.6 c 0,0 54.4,-209.7 96,-248.6 81.3,-55.8 209.4,178.7 209.4,178.7 l 65.8,59.8 46.8,42.5 c 0,0 0.7,35.8 -36.3,44.3 z"
   id="path60" />
	<path
   class="st9"
   d="m 645.8,692.9 c 0,0 -128.1,-234.4 -209.4,-178.7 -41.6,38.8 -93.6,239.5 -93.6,239.5 1,0 3,-0.5 5.5,-1.3 25.9,-8.7 44.8,-33.3 43.4,-60.7 -2.9,-53.9 49.8,-199.9 110.5,-128.9 20,23.4 51.4,25.6 61.6,43.3 8,14.2 -1,32.4 6,47.6 7,17.2 28.2,17.2 43.3,25.3 24.1,12.2 34.2,84.4 98.6,73.7 z"
   id="path62" />
	<path
   class="st1"
   d="m 535.8,416.3 c 9,-4 14.4,-5.4 15.8,-16.8"
   id="path64" />
	<path
   class="st1"
   d="m 502.2,440.8 c 4.9,-2.2 8.2,-3.6 10.2,-8.8"
   id="path66" />
	<path
   class="st1"
   d="m 478.7,386.2 c -9.5,9.6 -17.3,38.3 -9.7,51.1 2.9,4.8 10.3,5.2 12.3,9.3 8.5,17.1 -12.3,24.2 17.3,36.9"
   id="path68" />
	<path
   class="st1"
   d="m 567.3,342.6 c 11.9,-0.7 26.7,-1 38.3,3.4 13.4,5 24.6,14.1 37.9,18.7 28.8,9.9 63.3,3.9 63.3,55.5"
   id="path70" />
	<path
   class="st4"
   d="m 648.8,561.2 c -1.4,-9.9 -4.5,-39.7 -8.7,-77.4 -2.3,-21.4 1,-50.4 1,-50.4 0,0 -4.1,-4.7 -6.9,-1.1 -2.8,3.6 -3.9,15.4 -4.2,15.4 -4.8,-1 -32.7,-59.5 -40,-55.8 -5.3,2.6 16.5,36.2 16.5,36.2 0,0 -23.8,-38.2 -28,-34.8 -4.8,3.9 19.6,39.1 19.6,39.1 0,0 -22.5,-36.9 -28.4,-34.1 -5.8,2.8 20.2,39.9 19.5,40.2 -2.1,0.9 -23.5,-33 -27.8,-30.9 -4.1,2 17,34.2 23.3,51.4 8.9,24 -4,180.1 32.5,209.6 20.2,16.3 50.1,15.1 69.2,-7.7 19,-22.8 41.7,-83.3 41.7,-83.3 l -53.2,-57.3 c 0,-0.1 -25.1,47.9 -26.1,40.9 z"
   id="path72" />
	<path
   class="st5"
   d="m 695.3,458.7 c 0,0 -63.1,-33.3 -53.5,37.9 8.7,56 4.2,70.3 4.2,70.3 0,0 2.7,-3.7 28,11.6 25.3,15.3 44.2,43 44.2,43 0,0 24.1,-66.8 13.8,-93.6"
   id="path74" />
	<path
   class="st4"
   d="m 455.8,468.3 c 0,0 -43.2,40.2 -6,60.2 37.2,20 135,-4.5 135,-4.5 l 22.5,-1 c 0,0 1.3,5.9 6.7,25.9 5.3,19.9 7.9,43.8 14.6,53.9 6.8,10.1 8,0.2 8,0.2 l -3.9,-37.1 c 0,0 7.4,43 11.1,41 3.8,-2 0.8,-42.6 0.8,-42.6 0,0 12.2,40.7 14.6,40.2 2.4,-0.5 -0.8,-42.9 -0.8,-42.9 0,0 9.1,53.6 10.7,41.9 1.6,-11.7 1.2,-42.2 -3.3,-77 -2.2,-16.9 -18.7,-47 -51.7,-51.8 -19.5,-2.8 -158.3,-6.4 -158.3,-6.4 z"
   id="path76" />
	<path
   class="st3"
   d="m 488.9,439.6 c -8.7,51.3 26.9,40.1 26.9,40.1 l 22.7,-6.8 c 0,0 -25.7,-12.5 -27.5,-15 -2,-2.8 -15.3,-23.5 -16.8,-26.7"
   id="path78" />
	<path
   class="st10"
   d="m 552.5,539.3 c -3.3,6.5 11.7,49.4 40,49.4"
   id="path80" />
	<path
   class="st7"
   d="m 457.2,747.9 c 1.9,-2.3 17.9,-32.8 17.9,-32.8 0,0 7.3,27.3 13.1,40.2 14.2,31.9 33.2,63.6 60.2,78.3"
   id="path82" />
	<path
   class="st3"
   d="m 733.9,562.8 -9.1,80.6 -36.1,16.2 24.4,-46 5.4,8 z"
   id="path84" />
	<path
   class="st5"
   d="m 640.7,678.9 c 5.2,14 22.6,28.7 28.3,40.3 26.5,53.6 26.2,99.5 98,70.8"
   id="path86" />
	<path
   class="st1"
   d="m 674.7,704.2 c 6.6,12.8 12.7,26.1 18.4,39.4 8.4,19.8 18.7,52.5 48.5,42"
   id="path88" />
	<path
   class="st4"
   d="m 430.3,791.5 c -10.3,1.9 -36.2,-4.7 -57.1,-3.8 -7.2,0.3 -13.4,-3.1 -13.4,-3.1 0,0 -13.1,-8.8 -17.2,-5.9 -3.6,2.5 -3.2,11.8 -3.2,11.8 0,0 -7.2,3.9 -7.7,8.7 -0.1,1.2 0,6.6 0,6.6 0,0 0.8,6.8 3.2,12.7 2.4,5.9 39.7,11.5 59.4,17.3 5.5,1.6 36.4,11.7 51.7,8.9"
   id="path90" />
	<path
   class="st1"
   d="m 455.5,821.2 c -8.5,-3.5 -16.7,-3.3 -25.5,-5.4 -8.9,-2.1 -17.9,-5.7 -26.4,-9.1"
   id="path92" />
	<path
   class="st1"
   d="m 342.2,802 c -2.5,5.3 -4,8.8 -5.7,14.4"
   id="path94" />
	<path
   class="st1"
   d="m 256.8,315.6 520.6,0.2"
   id="path96" />
	<path
   class="st5"
   d="m 566.8,380.2 c 0,-10.2 8.5,-18.5 19,-18.5 10.5,0 19,8.3 19,18.5 0,10.2 -8.5,18.5 -19,18.5 -10.5,-0.1 -19,-8.3 -19,-18.5 z"
   id="path98" />
	<path
   class="st5"
   d="m 468.7,402 c 0,0 -11.5,-38 28,-59.8 46.6,-25.8 87.5,28.2 87.5,28.2 l -7,11.1 c 0,0 -52.1,-39.9 -94.9,-10 -20.4,14.2 -13.6,30.5 -13.6,30.5 z"
   id="path100" />
	<path
   class="st5"
   d="m 575.6,378.9 c 0,-5.8 4.6,-10.6 10.2,-10.6 5.6,0 10.2,4.7 10.2,10.6 0,5.8 -4.6,10.6 -10.2,10.6 -5.6,0 -10.2,-4.7 -10.2,-10.6 z"
   id="path102" />
	<g
   id="g128">
		<path
   class="st0"
   d="M 267.4,401.9 C 250.1,380.8 226.3,369.1 209,346.5 168.3,293.2 186.2,229.1 207.9,172.3 c 40.5,77.8 59.5,155.6 59.5,229.6 z"
   id="path104" />
		<path
   class="st0"
   d="m 268.4,398.8 c -23.7,-104.4 17,-154.4 51.5,-244.7 -1.9,83.6 37.2,186.6 -51.5,244.7 z"
   id="path106" />
		<path
   class="st0"
   d="m 266.7,413.1 c -0.3,-58.7 68.8,-104.7 84.9,-158.6 22.5,54.2 -14,162.6 -84.9,158.6 z"
   id="path108" />
		<g
   id="g126">
			<g
   id="g111">
				<path
   id="XMLID_1_"
   class="st11"
   d="m 254.6,376.8 h 34.6 c 26.7,0 48.3,21.8 48.3,48.6 v 0 c 0,26.8 -21.6,48.6 -48.3,48.6 h -34.6 c -26.7,0 -48.3,-21.8 -48.3,-48.6 v 0 c 0,-26.9 21.6,-48.6 48.3,-48.6 z" />
			</g>
			<g
   id="g121">
				<defs
   id="defs114">
					<path
   id="SVGID_1_"
   d="m 254.6,376.8 h 34.6 c 26.7,0 48.3,21.8 48.3,48.6 v 0 c 0,26.8 -21.6,48.6 -48.3,48.6 h -34.6 c -26.7,0 -48.3,-21.8 -48.3,-48.6 v 0 c 0,-26.9 21.6,-48.6 48.3,-48.6 z" />
				</defs>
				<clipPath
   id="SVGID_2_">
					<use
   xlink:href="#SVGID_1_"
   style="overflow:visible"
   id="use116"
   x="0"
   y="0"
   width="100%"
   height="100%" />
				</clipPath>
				<path
   class="st12"
   d="m 192.5,456.1 c 65.8,-128.6 52.7,172.7 22.2,21.3 -11.5,-57 88,-95 125.2,-85 33,8.8 -19.1,54.3 -43.7,86.2 -3.2,4.1 -9.9,1.8 -9.8,-4 -8.1,-54 68.4,-68.7 107.1,-60.7"
   clip-path="url(#SVGID_2_)"
   id="path119" />
			</g>
			<g
   id="g124">
				<path
   id="XMLID_2_"
   class="st1"
   d="m 254.6,376.8 h 34.6 c 26.7,0 48.3,21.8 48.3,48.6 v 0 c 0,26.8 -21.6,48.6 -48.3,48.6 h -34.6 c -26.7,0 -48.3,-21.8 -48.3,-48.6 v 0 c 0,-26.9 21.6,-48.6 48.3,-48.6 z" />
			</g>
		</g>
	</g>
	<g
   id="g142">
		<polyline
   class="st1"
   points="836.5,377.7 920.1,377.7 920.1,416.2 836.5,416.2   "
   id="polyline130" />
		<polyline
   class="st1"
   points="942.6,455.5 879.2,455.5 879.2,417.1 962.8,417.1 962.8,440   "
   id="polyline132" />
		<rect
   x="81.900002"
   y="714.79999"
   class="st1"
   width="83.599998"
   height="38.400002"
   id="rect134" />
		<polyline
   class="st1"
   points="73.6,754.1 39.2,754.1 39.2,792.6   "
   id="polyline136" />
		<line
   class="st1"
   x1="122.8"
   y1="792.59998"
   x2="122.8"
   y2="773.40002"
   id="line138" />
		<rect
   x="86.099998"
   y="450.39999"
   class="st1"
   width="83.599998"
   height="38.400002"
   id="rect140" />
	</g>
	<path
   class="st10"
   d="m 527.4,535.6 c 0,0 44.9,45 66.5,76.1"
   id="path144" />
	<path
   class="st3"
   d="m 746,518.9 c -8.1,-19.1 -16.4,-33.2 -24.6,-43.4 -8.7,5.4 -15.7,13.3 -17.9,21.9 -6.3,24.1 28.5,36.8 41.7,87.7 2.6,10 8.5,33.5 2.4,61.2 -3.2,14.8 -10.4,34 -15.3,47.1 -6.8,18.3 2.6,39 21.1,44.9 0.5,0.2 1,0.3 1.4,0.4 4.5,1.3 9.1,2.5 13.7,3.7 -1.4,-8.9 -2.4,-18.7 -2.6,-29.3 C 764.5,648.2 763,558.9 746,518.9 Z"
   id="path146" />
	<path
   class="st13"
   d="m 520.1,604.3 c 6.9,1.7 14.5,3.8 18.5,9.7 2.6,3.8 3.2,8.5 3.8,13.1 1.1,8.3 2.3,16.8 5.9,24.3"
   id="path148" />
	<path
   class="st13"
   d="m 527.7,624.8 c 4.2,4.7 5.8,11.2 6.5,17.4 0.7,6.2 0.8,12.7 2.6,18.7"
   id="path150" />
	<path
   class="st13"
   d="m 577.2,681 c 1.9,3.9 6.1,6 10.2,7.3 4.1,1.3 8.5,1.8 12.3,3.7 7.4,3.8 11.4,11.8 15.5,19.1 4.3,7.5 9.4,14.6 15,21.2"
   id="path152" />
	<path
   class="st13"
   d="m 609.9,722.3 c 6,11.9 15.1,22.2 26,29.8"
   id="path154" />
	<path
   class="st13"
   d="m 530.6,794.9 c 13.1,23.5 39.5,38.8 66.3,38.3"
   id="path156" />
	<path
   class="st13"
   d="m 573.3,814.3 c 10.5,6 22.9,8.5 34.8,7"
   id="path158" />
	<path
   class="st13"
   d="m 352,658.6 c -2.6,11.4 -5.2,22.8 -7.9,34.2"
   id="path160" />
	<line
   class="st13"
   x1="367.5"
   y1="645.70001"
   x2="360.39999"
   y2="670.79999"
   id="line162" />
	<path
   class="st1"
   d="m 731.8,670.8 c -8.1,15.8 -12,33.7 -11.3,51.4 0.2,4.6 0.7,9.4 3,13.4 2.3,4 6.8,7 11.4,6.3 0.9,-0.2 1.9,-0.5 2.6,-1.1 1.8,-1.6 1.5,-4.9 -0.4,-6.5 -1.9,-1.6 -4.7,-1.7 -6.9,-0.8 -2.7,5.4 0.7,12.3 5.9,15.5 5.1,3.2 11.4,3.6 17.4,4"
   id="path164" />
	<path
   class="st3"
   d="m 420.7,465.4 c -3.2,-2.2 -5.4,-5.8 -5.9,-9.7 -0.8,-6.5 4.8,-13.8 11.3,-12.6 6.3,1.2 9.1,8.7 9.5,15.1 0.2,2.4 0,5.1 -1.6,6.9 -3,3.2 -8.3,0.9 -12.6,1.8"
   id="path166" />
	<path
   class="st1"
   d="m 381.7,693.8 c 1,11.9 -5,24.2 -14.9,30.7"
   id="path168" />
	<path
   class="st1"
   d="m 368.9,702.3 c 0.7,3.2 -0.3,6.7 -2.6,9"
   id="path170" />
	<path
   class="st13"
   d="m 262,329 c -1,18 0.5,35.3 3.1,49.1"
   id="path172" />
	<path
   class="st13"
   d="m 208.8,216.9 c 0.2,20.5 3.3,40.8 6.5,61 1.8,11.4 3.6,22.9 7.1,33.9 3.1,9.8 7.5,19 11.9,28.3 5.6,11.7 11.2,23.5 19.5,33.4"
   id="path174" />
	<path
   class="st13"
   d="m 313.3,204.3 c -3,58 -13.7,115.6 -31.8,170.7"
   id="path176" />
	<path
   class="st13"
   d="m 352,256.5 c -2.4,44.5 -21.3,88 -52.1,120"
   id="path178" />
	<path
   class="st13"
   d="m 192.8,239.6 c 3.3,1.1 6,3.7 7.4,7 1.2,2.8 1.5,6.3 3.9,8.2 1.5,1.1 3.6,1.3 5.4,1.8 1.8,0.5 3.8,1.9 3.8,3.8 5.3,-3.5 11.2,-7.9 11.7,-14.3 0.2,-1.9 -0.1,-4.1 1.1,-5.6 1.1,-1.3 2.9,-1.6 4.5,-2 1.6,-0.4 3.4,-1.4 3.6,-3.1"
   id="path180" />
	<path
   class="st13"
   d="m 187.9,274.3 c 4.8,1.7 8.9,5.3 11.2,9.8 0.4,0.7 0.7,1.5 1.3,2.1 2.5,2.7 7.3,0.7 10.5,2.5 2.8,1.6 4,5.7 7.1,6 2.2,-4 8,-5.4 9.1,-9.8 0.2,-0.7 0.2,-1.5 0.6,-2.1 1.4,-2.5 5.3,-0.9 7.9,-1.8 3.6,-1.3 4.1,-7 7.8,-8.1"
   id="path182" />
	<path
   class="st13"
   d="m 249.7,299.1 c -4,3.1 -6.6,7.8 -7.1,12.9 -0.1,1 -0.1,2.1 -0.7,2.9 -0.8,1.2 -2.4,1.5 -3.8,2 -4.6,1.4 -8.9,5.2 -10.2,9.8 -0.3,-1.3 -1.7,-2.1 -3,-2.3 -1.3,-0.2 -2.6,0.1 -4,0.1 -2.4,0.1 -4.8,-0.6 -6.9,-2 -1.7,-1.1 -3.4,-2.7 -5.3,-2.1 -0.7,0.2 -1.3,0.7 -1.9,1.1 -2,1.2 -4.5,1.3 -6.8,0.6 -2.2,-0.7 -4.1,-2.2 -5.8,-3.8"
   id="path184" />
	<path
   class="st13"
   d="m 258.2,331.3 c -1.4,5.7 -3.4,12 -8.6,14.6 -1.1,0.6 -2.4,0.9 -3.4,1.6 -2,1.2 -5.8,4.8 -5.9,7.2 -2.1,0.2 -3.8,-1.5 -5.7,-2.3 -3.2,-1.3 -6.1,1.3 -9.6,1.5 -3.5,0.3 -7.7,-1.8 -11.1,-2.7"
   id="path186" />
	<path
   class="st13"
   d="m 236.2,367.8 c 2.5,1.3 5.4,2.3 8.2,1.9 1.2,-0.2 2.3,-0.6 3.5,-0.5 2,0.2 3.6,1.8 4.9,3.4 0.2,-2.2 0.4,-4.7 2.2,-6 0.9,-0.7 2.2,-1 3.1,-1.7 1,-0.7 1.6,-2.2 0.7,-3.1"
   id="path188" />
	<path
   class="st13"
   d="m 300.9,208.7 c 2.4,1.8 3.9,4.8 3.9,7.8 0,0.7 -0.1,1.5 0.2,2.2 0.8,2.1 4.1,2.1 5.1,4.1 0.6,1.3 0.2,3.1 1.3,4 0.6,-1.3 1.2,-2.6 2.5,-3.2 1.4,-0.7 3,-0.1 4.6,-0.4 2,-0.3 3.6,-2.1 3.7,-4.1"
   id="path190" />
	<path
   class="st13"
   d="m 286.2,246.2 c 0.8,2.8 3.4,5 6.3,5.2 1.6,0.1 3.3,-0.4 4.8,0.2 1.7,0.7 2.7,2.5 3.2,4.4 0.5,1.9 0.7,3.7 1.5,5.4 0.8,1.7 3.6,5.1 5.5,4.7 1.4,-0.3 1.4,-3.6 2.8,-4 2,-0.6 4.4,0.9 6.2,-0.2 1.1,-0.7 1.5,-2.1 2.4,-2.8 1.8,-1.4 5.3,-0.8 5.9,-3"
   id="path192" />
	<path
   class="st13"
   d="m 272,291.4 c 3.9,0.1 7.7,2.5 9.5,6 1.6,3 1.9,7.1 4.9,8.8 1.3,0.8 3,0.9 4.5,1.3 3.5,1 6.3,3.9 7.1,7.4 1.5,-2.8 5.2,-3.2 8.4,-3.2 3.2,0 6.7,0.1 8.8,-2.3 0.6,-0.7 6.5,-8.6 11.8,-9.3"
   id="path194" />
	<path
   class="st13"
   d="m 264.8,329.3 c 1.6,0.1 2.7,1.6 3.3,3.1 0.6,1.5 1.1,3.1 2.5,4 1.9,1.2 4.4,0.4 6.6,0.8 5.5,1.1 6.4,9.2 11.2,12.2"
   id="path196" />
	<path
   class="st13"
   d="m 333.3,296.9 c 0.8,1.9 1.2,4 1.2,6.1 0,2.1 -0.2,4.4 1.1,6 0.8,1 2.1,1.5 2.7,2.6 0.2,0.3 0.3,0.7 0.5,1 0.5,0.6 1.4,0.5 2.2,0.4 1.9,-0.3 3.9,-0.3 5.8,-0.3 1.5,0.1 3.1,0.2 4.5,-0.2 1.4,-0.4 2.9,-1.6 3,-3.1"
   id="path198" />
	<path
   class="st13"
   d="m 314.9,324.2 c 2.9,0.5 5.5,2.5 6.7,5.2 0.8,1.8 1.1,4 2.4,5.5 2.1,2.3 5.7,1.9 8.8,2.5 2.8,0.5 5.4,2 8.3,2.2 3.2,0.2 6.5,-1.3 8.4,-3.9"
   id="path200" />
	<path
   class="st13"
   d="m 295,356.7 c 4.5,-0.4 9,2.2 11.1,6.2 0.4,0.8 0.7,1.6 1.4,2.3 1.9,1.9 5.1,0.5 7.7,0.9 1.7,0.3 3.1,1.3 4.7,2 4.3,1.9 9.7,0.8 13,-2.6"
   id="path202" />
	<path
   class="st13"
   d="m 327,300 c -19.3,19.5 -38.6,49.4 -46.3,77.7"
   id="path204" />
	<line
   class="st1"
   x1="471.39999"
   y1="265.10001"
   x2="481.20001"
   y2="296.60001"
   id="line206" />
	<line
   class="st1"
   x1="559"
   y1="247.10001"
   x2="551"
   y2="300.20001"
   id="line208" />
	<line
   class="st1"
   x1="585.79999"
   y1="279.5"
   x2="578.70001"
   y2="303.79999"
   id="line210" />
	<line
   class="st1"
   x1="663.59998"
   y1="227.3"
   x2="624.29999"
   y2="305.60001"
   id="line212" />
	<line
   class="st1"
   x1="694.90002"
   y1="293"
   x2="651.09998"
   y2="337.10001"
   id="line214" />
	<line
   class="st1"
   x1="686.90002"
   y1="351.5"
   x2="719.90002"
   y2="335.29999"
   id="line216" />
	<line
   class="st13"
   x1="630.20001"
   y1="833.59998"
   x2="741.59998"
   y2="833.20001"
   id="line218" />
	<polyline
   class="st1"
   points="363.9,172.3 798.2,172.3 798.2,716.6  "
   id="polyline220" />
	<line
   class="st1"
   x1="241.3"
   y1="515.5"
   x2="241.3"
   y2="794.90002"
   id="line222" />
	<ellipse
   class="st3"
   cx="267.89999"
   cy="45.5"
   rx="8.6999998"
   ry="8.8000002"
   id="ellipse224" />
	<path
   class="st14"
   d="m 311.3,588.3 12.5,-55.8 c 1.3,2.7 3.7,5.8 7.9,10.2 l 1.4,1.4 c 5.8,5.7 15.5,15.4 9.2,25 -0.5,0.7 -0.3,1.7 0.4,2.1 0.3,0.2 0.6,0.3 0.8,0.3 0.5,0 1,-0.2 1.3,-0.7 7.7,-11.7 -3.6,-22.9 -9.6,-28.9 l -1.4,-1.4 c -7.7,-7.9 -8.5,-11.2 -8.7,-14.5 l 3.3,-14.6 c 1.3,2.7 3.7,5.8 8,10.2 l 1.5,1.5 c 5.8,5.7 15.5,15.4 9.2,25 -0.5,0.7 -0.3,1.7 0.4,2.1 0.3,0.2 0.6,0.3 0.8,0.3 0.5,0 1,-0.2 1.3,-0.7 7.7,-11.7 -3.6,-22.9 -9.6,-28.8 l -1.4,-1.4 c -7.8,-8 -8.5,-11.2 -8.7,-14.6 0,-0.8 -0.6,-1.4 -1.6,-1.5 -0.8,0 -1.5,0.7 -1.5,1.6 -0.1,0.1 -0.1,0.2 -0.2,0.4 L 309.2,584 c -3.5,-4.1 -10.1,-6.1 -17.1,-4.7 -9.3,1.9 -15.8,9.1 -14.4,16.1 1.4,7.1 10.1,11.3 19.4,9.4 9.3,-1.8 15.8,-9.1 14.4,-16.1 -0.1,-0.1 -0.1,-0.2 -0.2,-0.4 z"
   id="path226" />
	<path
   class="st1"
   d="M 220.7,389.8 267.5,45.1 323.3,391.7"
   id="path228" />
</g>
</svg>
