<?xml version="1.0" encoding="UTF-8" standalone="no"?>
<svg
   xmlns:dc="http://purl.org/dc/elements/1.1/"
   xmlns:cc="http://creativecommons.org/ns#"
   xmlns:rdf="http://www.w3.org/1999/02/22-rdf-syntax-ns#"
   xmlns:svg="http://www.w3.org/2000/svg"
   xmlns="http://www.w3.org/2000/svg"
   xmlns:sodipodi="http://sodipodi.sourceforge.net/DTD/sodipodi-0.dtd"
   xmlns:inkscape="http://www.inkscape.org/namespaces/inkscape"
   version="1.1"
   id="Layer_1"
   x="0px"
   y="0px"
   viewBox="0 0 1000 1000"
   xml:space="preserve"
   sodipodi:docname="portada_3.svg"
   width="1000"
   height="1000"
   inkscape:export-filename="C:\Users\Bryan Silva\Documents\MEGA\Cursos - Certificados\Next U\Desarrollador Web\04 Tecnologías Frontend\Proyecto\imagenes\portada_3.png"
   inkscape:export-xdpi="96"
   inkscape:export-ydpi="96"
   inkscape:version="1.0.2-2 (e86c870879, 2021-01-15)"><metadata
   id="metadata155"><rdf:RDF><cc:Work
       rdf:about=""><dc:format>image/svg+xml</dc:format><dc:type
         rdf:resource="http://purl.org/dc/dcmitype/StillImage" /><dc:title></dc:title></cc:Work></rdf:RDF></metadata><defs
   id="defs153" /><sodipodi:namedview
   pagecolor="#ffffff"
   bordercolor="#666666"
   borderopacity="1"
   objecttolerance="10"
   gridtolerance="10"
   guidetolerance="10"
   inkscape:pageopacity="0"
   inkscape:pageshadow="2"
   inkscape:window-width="1366"
   inkscape:window-height="705"
   id="namedview151"
   showgrid="false"
   inkscape:zoom="0.32885086"
   inkscape:cx="110.21954"
   inkscape:cy="580.19016"
   inkscape:window-x="-8"
   inkscape:window-y="-8"
   inkscape:window-maximized="1"
   inkscape:current-layer="Layer_1" />
<style
   type="text/css"
   id="style2">
	
		.st0{fill-rule:evenodd;clip-rule:evenodd;fill:#1C2628;stroke:#1C2628;stroke-width:2.13;stroke-linecap:round;stroke-linejoin:round;}
	.st1{fill:none;stroke:#1C2628;stroke-width:2.13;stroke-linecap:round;stroke-linejoin:round;}
	.st2{fill-rule:evenodd;clip-rule:evenodd;fill:#F3A13B;}
	.st3{fill-rule:evenodd;clip-rule:evenodd;fill:#FAF6EB;}
	
		.st4{fill-rule:evenodd;clip-rule:evenodd;fill:#F45B49;stroke:#1C2628;stroke-width:2.13;stroke-linecap:round;stroke-linejoin:round;}
	.st5{fill-rule:evenodd;clip-rule:evenodd;fill:#FB564C;}
	.st6{fill-rule:evenodd;clip-rule:evenodd;fill:#F7AA9A;}
	.st7{fill:#1C2628;stroke:#1C2628;stroke-width:2.13;stroke-linecap:round;stroke-linejoin:round;}
	.st8{fill:none;stroke:#FAF6EB;stroke-width:2.13;stroke-linecap:round;stroke-linejoin:round;}
	.st9{fill:#F3A13B;}
	.st10{fill:none;stroke:#000000;stroke-width:6;stroke-linecap:round;stroke-linejoin:round;}
	.st11{fill:#1C2628;stroke:#1C2628;stroke-width:2.1299;stroke-linecap:round;stroke-linejoin:round;stroke-miterlimit:3.9998;}
</style>






<g
   id="g230"
   transform="matrix(1.3110786,0,0,1.3110786,-7.886906,-74.142506)"><g
     id="g112"
     transform="translate(36.900012,7.2000122)">
	<path
   class="st0"
   d="m 530,654.6 c -3.9,39.6 -75.5,66.6 -171,68.9 -0.1,0 -0.3,0 -0.4,0 -22.8,0.5 -47,-0.3 -72,-2.7 C 235.8,715.9 189.4,705.2 152,691 136.8,685.3 123.2,679 111.3,672.3 77.7,653.3 58.5,631.1 60.6,609 c 4.4,-45.1 96.6,-73.8 212,-68.4 10.3,0.5 20.8,1.2 31.4,2.3 51.8,5 99.1,16.1 136.8,30.6 56.7,21.7 92.1,51.5 89.2,81.1 z"
   id="path4" />
	<path
   class="st1"
   d="m 553.1,623.9 c 12.2,15 13.4,28.1 12.7,44.9 -2.3,54 -75.6,65.7 -116.5,77.8"
   id="path6" />
	<path
   class="st1"
   d="M 145,520.5 C 86,530.4 15.1,569.1 36.6,639.5"
   id="path8" />
	<path
   class="st1"
   d="m 406.9,669.7 c 3.1,-4.3 2.6,-1.5 -1,-0.7 -12.9,2.9 -25.8,6.3 -38.6,9.7 -16.2,4.3 -30,14.8 -44.9,22.4"
   id="path10" />
	<g
   id="g22">
		<path
   class="st2"
   d="M 486.1,518.3 C 545.5,455 392.5,157.9 297.7,215.1 264.9,230.4 251.5,256.3 238.4,286.8 206.6,403.5 67.2,364.5 63,490.5 55.1,674.4 422.5,653.6 486.1,518.3 Z"
   id="path12" />
		<path
   class="st2"
   d="m 142.5,302.7 c 21.8,-3.5 42.6,-5.7 36.6,25.3 -0.8,4.2 -6.8,30.4 -27.9,33.3 -42.8,6.9 -51.7,-52.7 -8.7,-58.6 z"
   id="path14" />
		<path
   class="st2"
   d="m 207.1,295.9 c -9.2,6.5 -26.7,-2.5 -20.9,-14.6 4.5,-25.3 54.1,3.2 20.9,14.6 z"
   id="path16" />
		<path
   class="st1"
   d="m 215.6,439.8 c 3.1,7.3 6.3,15.3 4.3,23 -1.6,6.4 -6.5,11.5 -11.4,15.9 -2.5,2.2 -5.1,4.5 -8.3,5.4 -3.2,1 -7.1,0.4 -9.2,-2.2 -2.3,-2.8 -1.7,-7.1 0,-10.3 1.3,-2.5 3.5,-4.7 6.2,-5.5 4.7,-1.4 9.7,2.1 11.6,6.6 1.9,4.5 1.4,9.6 0.4,14.4 -4.1,19.6 -15.2,36.8 -26.1,53.6"
   id="path18" />
		<path
   class="st3"
   d="m 158.5,417.1 c 11.6,1.4 26.2,-17.7 9.1,-19.6 -5.3,1.9 -16.2,17.2 -10.9,19.2"
   id="path20" />
	</g>
	<g
   id="g62">
		<path
   class="st4"
   d="m 273.3,288.3 c -12.5,2.6 -17.5,13.9 -11.4,25.7 1.7,3.3 11.7,17.7 20.7,16.1 4.3,-0.8 18,1.1 15.3,-31.6 -1.7,-12.8 -7.9,-13.6 -24.6,-10.2 z"
   id="path24" />
		<path
   class="st4"
   d="m 462.7,477.7 c -15.1,50.6 -91.1,167 -96.5,186.3 l -0.8,-3.3 c -17.1,6 -115.2,6.9 -147.3,-24 -3.2,-3.1 -5.7,-6.4 -7.5,-10.2 l 26.6,-66.2 c -1.6,2.3 -17.3,-11.6 1,-50 5,-10.5 15.4,-38.9 15.4,-38.9 0.8,-4.3 3.1,-21 5.9,-41.4 -0.4,-0.7 -0.5,-1.1 -0.5,-1.1 -8.8,-6 -41.8,-3.6 -49.3,-29.4 -1.1,-3.9 -1.7,-8.5 -1.5,-13.9 0.2,-6 3.9,-8.8 8.1,-10 4.1,-1.2 8.7,-1 11,-0.8 12.4,0.7 24.5,5.3 36,10.1 0.8,0.3 1.5,0.7 2.3,1 3.9,-28.1 7.6,-52.5 8.8,-53.8 2,-2.2 3.9,-4.4 5.8,-6.5 6,-6.6 12.1,-11.6 22.4,-7.8 6.7,2.4 13.2,5 19.4,8 13.1,6.3 25,14.3 34.5,26.2 9.4,11.7 17.9,24.3 24.3,37.8 5.8,12.2 9.6,25.5 12,38.7 1.7,9 2.9,18.4 2.3,27.6 -0.1,2.3 -0.4,4.5 -0.8,6.8 -1.8,10.1 -4.3,20 -7.1,29.8 z"
   id="path26" />
		<path
   class="st3"
   d="m 218.1,636.7 c -3.2,-3.1 -5.7,-6.4 -7.5,-10.2 l 26.6,-66.2 c -1.6,2.3 -17.3,-11.6 1,-50 5,-10.5 15.4,-38.9 15.4,-38.9 0.8,-4.3 3.1,-21 5.9,-41.4 -0.4,-0.7 -0.5,-1.1 -0.5,-1.1 -8.8,-6 -41.8,-3.6 -49.3,-29.4 7.3,1.3 15.1,3.7 23.4,6.2 16.6,5 26.6,8 31.9,17.3 6.2,10.8 -1.5,16.8 3.6,42.3 1.5,7.7 3,10.9 4.9,22.2 2.2,13 3.2,19.6 1.3,24.5 -4.8,12.1 -18.9,13.3 -18.7,20.9 0.1,4.5 5.1,6.3 10.2,11.1 0,0 13.6,12.6 14.7,35.5 1.4,28.9 -36.8,62.3 -62.9,57.2 z"
   id="path28" />
		<path
   class="st0"
   d="m 395.2,456.2 c -6.5,5.5 -13.6,9.8 -21.3,12.2 -20.9,6.6 -42.5,-1.7 -61,-8.9 -14.6,-5.7 -32.2,-12.4 -36.7,-27.3 -2.5,-8.3 0.7,-13.5 -4.1,-19.6 -5.5,-6.8 -12.8,-4.2 -25.8,-9.8 -12.8,-5.5 -20.3,-14.4 -23.1,-17.8 -2.2,-2.6 -4.6,-5.9 -6.8,-9.5 4.1,-1.2 8.7,-1 11,-0.8 12.4,0.7 24.5,5.3 36,10.1 0.8,0.3 1.5,0.7 2.3,1 3.9,-28.1 7.6,-52.5 8.8,-53.8 2,-2.2 3.9,-4.4 5.8,-6.5 13.4,-0.9 27.7,-0.8 41.9,0.2 13.1,6.3 25,14.3 34.5,26.2 9.4,11.7 17.9,24.3 24.3,37.8 5.8,12.2 9.6,25.5 12,38.7 1.6,9.2 2.9,18.6 2.2,27.8 z"
   id="path30" />
		<path
   class="st3"
   d="m 237.6,634.7 c 4.1,-3.7 8.1,-7.6 11.8,-11.7 C 218.3,604.2 218,589 218,589 l -66,101.9 c 32.2,12.2 71.1,21.8 113.6,27.4 -6.9,-18 -17.5,-35.1 -31,-49.6 -8,-10 -5,-26 3,-34 z"
   id="path32" />
		<path
   class="st5"
   d="m 278.9,637.6 c -12.1,-5 -21.7,-9.9 -29.5,-14.6 -3.6,4.1 -7.6,8 -11.8,11.7 -8,8 -11,24 -3,34 13.6,14.5 24.2,31.6 31,49.6 6.9,0.9 13.9,1.7 21,2.4 24.9,2.4 49.1,3.3 72,2.7 0.1,0 0.3,0 0.4,0 l 28.1,-78.7 c 0,0.1 -36.1,22.7 -108.2,-7.1 z"
   id="path34" />
		<path
   class="st6"
   d="m 400.4,422 c 2.8,-7.5 -1.2,-19.3 -3.4,-26.8 -12.3,-41.2 -47.1,-61.9 -82,-82.1 -12.1,-7 -18.9,-8.2 -29.8,11.6 -5.8,10.5 -9.6,36.3 -1.7,43.5 23.5,21.1 52.6,37.7 68.6,64.3 2.4,4 14.6,40 14.6,40 0,0 7.8,-9.1 17.4,-17.4 8,-7 10.3,-7.5 11.5,-9.2 z"
   id="path36" />
		<g
   id="g56">
			<g
   id="g40">
				<path
   class="st7"
   d="m 507.3,265.8 c -2.9,-1.5 -4.1,-5 -2.6,-8 l 0.2,-0.3 c 1.5,-2.9 5,-4.1 8,-2.6 2.9,1.5 4.1,5 2.6,8 l -0.2,0.3 c -1.6,3 -5.1,4.1 -8,2.6 z m 4.4,-8.5 c -1.6,-0.8 -3.5,-0.2 -4.4,1.4 l -0.2,0.3 c -0.8,1.6 -0.2,3.5 1.4,4.4 1.6,0.8 3.5,0.2 4.4,-1.4 l 0.2,-0.3 c 0.8,-1.7 0.2,-3.6 -1.4,-4.4 z"
   id="path38" />
			</g>
			<g
   id="g44">
				<path
   class="st7"
   d="m 501,278.1 c -2.9,-1.5 -4.1,-5 -2.6,-8 l 0.2,-0.3 c 1.5,-2.9 5,-4.1 8,-2.6 3,1.5 4.1,5 2.6,8 l -0.2,0.3 c -1.6,3 -5.1,4.1 -8,2.6 z m 4.3,-8.5 c -1.6,-0.8 -3.5,-0.2 -4.4,1.4 l -0.2,0.3 c -0.8,1.6 -0.2,3.5 1.4,4.4 1.6,0.9 3.5,0.2 4.4,-1.4 l 0.2,-0.3 c 0.9,-1.7 0.3,-3.6 -1.4,-4.4 z"
   id="path42" />
			</g>
			<g
   id="g48">
				<path
   class="st7"
   d="m 511.9,250.8 c -4.3,-2.2 -5.9,-7.5 -3.8,-11.7 l 7.3,-14.1 c 2.2,-4.3 7.4,-5.9 11.7,-3.8 4.3,2.2 5.9,7.5 3.8,11.7 v 0 l -7.3,14.1 c -2.2,4.3 -7.5,6 -11.7,3.8 z m 14,-27.2 c -3,-1.5 -6.6,-0.4 -8.1,2.6 l -7.3,14.1 c -1.5,3 -0.4,6.6 2.6,8.1 3,1.5 6.6,0.4 8.1,-2.6 l 7.3,-14.1 c 1.5,-3 0.4,-6.6 -2.6,-8.1 z"
   id="path46" />
			</g>
			<path
   class="st0"
   d="M 562.2,166.9 413,456.6 c -4.5,8.8 -15.3,12.2 -24.1,7.7 L 258.4,397.1 c -8.8,-4.5 -12.2,-15.3 -7.7,-24.1 l 84.6,-164.4 c 3,-0.2 6,-0.4 9.1,-0.6 L 258,375.9 c -2.6,5.1 -0.6,11.4 4.5,14.1 L 392,456.6 c 1.5,0.8 3.1,1.2 4.8,1.2 3.9,0 7.5,-2.2 9.3,-5.7 L 554.7,163.5 c 0.5,-1 0.8,-2 1,-3 0.1,0 0.2,-0.1 0.3,-0.1 2.8,-1.2 5.5,-2.5 8.2,-3.7 0.3,3.3 -0.3,6.9 -2,10.2 z"
   id="path50" />
			<path
   class="st3"
   d="m 555.6,160.5 c -0.2,1 -0.5,2 -1,3 L 406.1,452.1 c -1.8,3.5 -5.4,5.7 -9.3,5.7 -1.7,0 -3.3,-0.4 -4.8,-1.2 L 262.5,390 c -5.1,-2.6 -7.1,-8.9 -4.5,-14.1 l 86.4,-167.8 c 20.1,-1.4 42,-3.9 64.9,-7.6 57.4,-9.4 109.7,-24.1 146.3,-40 z"
   id="path52" />
			<path
   class="st0"
   d="m 472.7,102.4 c 0,0 -2.8,5.5 -3,10.1 0,0.3 0,0.5 0,0.8 0.1,4.2 2.7,7.9 6.4,9.8 l 9.6,4.9 c 2.7,1.4 5.8,1.7 8.6,0.8 1.2,-0.4 2.4,-0.9 3.5,-1.6 3.9,-2.6 6.5,-8 6.5,-8 z"
   id="path54" />
		</g>
		<path
   class="st4"
   d="m 481.5,407.2 c 1,5.4 -9.6,53.4 -23.2,83.1 l -149.7,28.4 c 0,0 3.9,-14.7 12,-31 7.2,-14.5 17.6,-30.2 31.5,-38 41,-23 72.3,-12.1 72.3,-12.1 0,0 2,-17.8 14.7,-40.4 0,0 0.1,-3.8 0.7,-9.5 1.2,-11.4 4.4,-30 12.9,-38.5 18.2,-18.2 32.6,-14.6 31.6,-11.8 0.8,3.8 -1.9,67.1 -2.8,69.8 z"
   id="path58" />
		<path
   class="st4"
   d="m 249.5,314.9 c -12.7,2.7 -17.8,14.1 -11.6,26.2 1.7,3.3 11.9,18.1 21.1,16.4 4.3,-0.8 18.3,1.1 15.6,-32.2 -1.8,-13 -8.2,-13.9 -25.1,-10.4 z"
   id="path60" />
	</g>
	<path
   class="st1"
   d="m 358.6,723.5 c -22.8,0.5 -47,-0.3 -72,-2.7 C 235.8,715.9 189.4,705.2 152,691"
   id="path64" />
	<path
   class="st1"
   d="m 220.3,596 c 0,0 4.5,14.5 29.1,27 24.6,12.5 50.1,29.4 86,29.4"
   id="path66" />
	<path
   class="st1"
   d="m 470.6,340.8 c 0,0 -3.7,22.6 0,26.2 3.7,3.7 9.1,3.7 9.1,3.7"
   id="path68" />
	<path
   class="st3"
   d="m 425.5,454.8 c -14.8,7 -22.3,-4.7 -41.4,0.3 -23.5,6.3 -25.5,27.7 -45.7,32.8 -4.7,1.2 -10.6,1.6 -17.9,-0.2 7.2,-14.5 17.6,-30.2 31.5,-38 41,-23 72.3,-12.1 72.3,-12.1 0,0 2,-17.8 14.7,-40.4 0,0 0.1,-3.8 0.7,-9.5 4.4,6.3 7.5,13.5 8.4,21.3 1.9,17.7 -7.3,38.5 -22.6,45.8 z"
   id="path70" />
	<path
   class="st5"
   d="m 295.5,530.8 c -1.3,-8 16.2,-17.1 30.9,-24.7 32.5,-16.8 67.6,-22.8 72.4,-23.6 19.9,-3.2 33.1,-3 45.3,-14.2 7.4,-6.7 15.9,-19.4 18.5,-18.5 4.2,1.5 1.4,28.6 -6.7,45.8 -18.6,39.7 -78.3,46.6 -89.1,47.9 -31.2,3.9 -69.5,-1.4 -71.3,-12.7 z"
   id="path72" />
	<line
   class="st1"
   x1="538.09998"
   y1="300.70001"
   x2="507.89999"
   y2="320.79999"
   id="line74" />
	<line
   class="st1"
   x1="539.90002"
   y1="332.10001"
   x2="508.5"
   y2="335.70001"
   id="line76" />
	<line
   class="st1"
   x1="506.10001"
   y1="351.10001"
   x2="535.09998"
   y2="382.5"
   id="line78" />
	<line
   class="st1"
   x1="507.29999"
   y1="383.10001"
   x2="521.5"
   y2="400.29999"
   id="line80" />
	<path
   class="st1"
   d="m 221.3,645.4 c -3.6,8.4 -6,18 -2.9,26.5 2.3,6.5 7.5,11.5 11.9,16.9 4.4,5.4 8.2,12 7.1,18.9"
   id="path82" />
	<path
   class="st1"
   d="m 237.1,684.4 c 2.9,6 9.1,9.8 11.8,15.8 1.3,2.9 1.7,6.2 1.7,9.4"
   id="path84" />
	<path
   class="st1"
   d="m 268.8,574.5 c 0,4.6 0,9.3 -0.8,13.9 -0.8,4.6 -2.5,9.1 -5.6,12.5 -3.3,3.7 -7.9,6 -12.3,8.2"
   id="path86" />
	<path
   class="st1"
   d="m 272.4,597.3 c -1.3,4 -4,7.6 -7.5,10"
   id="path88" />
	<path
   class="st1"
   d="m 246.2,342.2 c -0.5,-4.4 -1,-9 0.7,-13 1.7,-4 6.5,-7.2 10.6,-5.4"
   id="path90" />
	<path
   class="st1"
   d="m 443.7,477 c -21.1,35.1 -41.1,71 -59.9,107.4"
   id="path92" />
	<line
   class="st1"
   x1="415.70001"
   y1="547.5"
   x2="375.70001"
   y2="624.40002"
   id="line94" />
	<path
   class="st1"
   d="m 465.5,427 c -6.3,26.9 -4.6,45.6 -28.3,82.9"
   id="path96" />
	<path
   class="st0"
   d="m 608.5,119.7 c -1.5,11.5 -17.9,24.4 -44.4,36.9 -2.6,1.2 -5.4,2.5 -8.2,3.7 -0.1,0 -0.2,0.1 -0.3,0.1 -36.6,15.9 -89,30.7 -146.3,40 -22.9,3.7 -44.8,6.2 -64.9,7.6 -3.1,0.2 -6.1,0.4 -9.1,0.6 -24.3,1.3 -45.8,1 -63.4,-1 C 240,204.1 221.3,195.3 223,182 c 1.7,-13.2 23.4,-28.5 57.4,-42.7 28.5,-11.9 65.6,-23.1 106.9,-31.6 3.3,-0.7 6.5,-1.3 9.8,-2 8.2,-1.6 16.6,-3.1 25.1,-4.5 9.2,-1.5 18.2,-2.8 26.9,-3.9 4.8,-0.6 9.5,-1.1 14.1,-1.6 v 0 c 31.9,-3.4 60.5,-4.3 83.8,-2.8 39.5,2.6 63.4,11.9 61.5,26.8 z"
   id="path98" />
	<path
   class="st8"
   d="m 343,188.1 c -3,0.2 -5.9,0.4 -8.8,0.5 -9.2,0.5 -18.1,0.8 -26.4,0.8 -12.4,0 -23.7,-0.6 -33.7,-1.7"
   id="path100" />
	<path
   class="st8"
   d="m 555.5,138.6 c -2.5,1.2 -5,2.3 -7.6,3.5 l -0.5,0.2"
   id="path102" />
	<path
   class="st8"
   d="m 288.1,157.8 c 27.8,-11.6 64.4,-22.4 103.2,-30.5 3.2,-0.6 6.3,-1.3 9.6,-1.9 8,-1.5 16.2,-3 24.5,-4.4 8.8,-1.4 17.6,-2.7 26.3,-3.8 4.4,-0.6 8.7,-1.1 12.8,-1.5 l 1,-0.1 c 21,-2.2 40.6,-3.4 58.5,-3.4 7.7,0 15.1,0.2 21.9,0.6"
   id="path104" />
	<path
   class="st1"
   d="m 586.1,75.8 c 51.2,3.3 82.3,15.3 79.7,34.6 -1.9,14.9 -23.3,31.7 -57.6,47.9 -3.4,1.6 -7,3.2 -10.6,4.8 -0.1,0.1 -0.2,0.1 -0.3,0.1"
   id="path106" />
	<path
   class="st1"
   d="m 229.2,224.6 c -41.4,-4.6 -65.7,-16 -63.5,-33.2 2.2,-17.2 30.4,-37 74.4,-55.4 37,-15.5 85.2,-29.9 138.7,-41 4.2,-0.9 8.5,-1.7 12.7,-2.6 10.7,-2.1 21.6,-4 32.6,-5.8 11.9,-1.9 23.6,-3.6 35,-5"
   id="path108" />
	<path
   class="st1"
   d="M 527.1,757.7 C 471,772.6 414.6,792.5 356.6,789"
   id="path110" />
</g><g
     id="g126">
	<circle
   class="st9"
   cx="415.39999"
   cy="263.39999"
   r="46.5"
   id="circle114" />
	<path
   class="st1"
   d="m 384.3,247 c 9,-17.2 30.3,-23.8 47.4,-14.7"
   id="path116" />
	<path
   class="st1"
   d="m 392.9,251.5 c 6.5,-12.4 21.9,-17.2 34.3,-10.6"
   id="path118" />
	<circle
   class="st1"
   cx="415.39999"
   cy="263.39999"
   r="6.3000002"
   id="circle120" />
	<line
   class="st1"
   x1="418.20001"
   y1="297"
   x2="405.60001"
   y2="321"
   id="line122" />
	<path
   class="st1"
   d="m 418.2,297 v 0 c -2,-1 -2.7,-3.5 -1.7,-5.4 l 2.1,-3.9 c 1,-2 3.5,-2.7 5.4,-1.7 v 0 c 2,1 2.7,3.5 1.7,5.4 l -2.1,3.9 c -1,2 -3.5,2.7 -5.4,1.7 z"
   id="path124" />
</g><line
     class="st1"
     x1="336.5"
     y1="322"
     x2="407.79999"
     y2="358.29999"
     id="line128" /><line
     class="st1"
     x1="366"
     y1="357.60001"
     x2="410.10001"
     y2="380.20001"
     id="line130" /><line
     class="st10"
     x1="317.20001"
     y1="332.70001"
     x2="366"
     y2="357.60001"
     id="line132" /><path
     class="st7"
     d="m 129.7,482.9 c -4.6,-1.7 -9.6,-1.6 -13.7,-0.1 -2.4,0.8 -4.5,2 -6.2,3.4 -0.3,-1.1 -0.5,-2.2 -0.8,-3.3 -0.5,-2.1 -1,-4.3 -1.4,-6.5 1.9,-2 3.6,-4.2 5.1,-6.6 3.8,-5.5 6.4,-12.1 6.7,-18.9 0.2,-6.7 0.1,-13.6 -2.5,-19.4 -0.6,-1.5 -1.3,-2.5 -2.5,-4.5 -0.4,-0.7 -1.2,-2.1 -2.2,-3.1 -1,-1.1 -2.8,-1.8 -4.6,-1.5 -3.6,0.8 -5.1,3.1 -6.1,4.8 -0.5,0.9 -0.8,1.7 -1.1,2.7 -0.2,0.5 -0.3,0.8 -0.4,1.2 l -0.1,0.3 c -0.1,0.3 -0.1,0.3 -0.1,0.4 l -0.1,0.6 c -0.7,3.5 -0.3,6.7 0.1,9.7 0.4,3 0.8,5.9 1.1,8.8 0.4,4.6 1.1,9.1 2,13.6 -1.4,2 -2.9,4 -4.5,5.8 l -3,3.4 c -1,1.1 -2,2.4 -3.1,3.7 -4.1,5.2 -7.3,11.1 -9,17.7 -1.8,6.5 -1.1,14.2 2.6,20 3.6,5.9 9.4,9.6 15.2,11.4 5.7,1.7 11.5,2.1 17,1.3 0.7,2.8 1.4,5.6 2,8.2 2.2,6.9 0.2,13.4 -4,15.8 -3.1,1.7 -6.3,1.1 -8.4,0 0.2,0 0.4,0 0.7,0 3.3,-0.1 5.8,-2.9 5.6,-6.2 -0.1,-3.3 -2.9,-5.8 -6.2,-5.6 -3.3,0.1 -5.8,2.9 -5.6,6.2 0,0.3 0.1,0.5 0.1,0.8 v 0 0 c 0.2,1.2 0.8,2.3 1.6,3.1 0.2,0.3 0.4,0.5 0.7,0.8 1.1,1.1 2.6,2.2 4.7,2.8 2.1,0.6 4.7,0.7 7.5,-0.4 2.7,-1.1 5.2,-3.7 6.2,-7.1 0.5,-1.7 0.8,-3.5 0.6,-5.4 -0.2,-2 -0.6,-3.7 -1,-5.5 -0.6,-2.6 -1.3,-5.3 -2,-8.1 4.9,-1 9.4,-3 13.4,-5.7 4.4,-3.3 7.7,-8.1 8.7,-13.4 1.1,-5.3 0.1,-10.8 -2.2,-15.3 -2.1,-4.5 -6.1,-8.2 -10.8,-9.9 z M 105,437.8 c 0.7,-2.4 1.9,-9 5.6,-8.1 2.3,0.6 2.9,3.7 3,5.7 0.3,4.7 -0.6,9.6 -2.6,13.9 -1.9,4.2 -3.9,8.1 -6.2,12 -0.5,-3.5 -0.9,-7 -1.2,-10.6 -0.2,-4.3 0.3,-8.7 1.4,-12.9 z m -2.1,84.1 c -4.8,-2.1 -9.1,-5.5 -11.3,-10 -2.2,-4.4 -2.2,-9.6 -0.4,-14.5 1.8,-4.9 5.2,-9.4 8.9,-13.4 0.9,-1 1.8,-2 3,-3.1 l 1.6,-1.5 c 0.4,-0.4 0.7,-0.7 1.1,-1.1 0.4,1.7 0.8,3.4 1.1,5.1 0.3,1.5 0.7,2.9 1,4.4 -3.3,3.3 -5.2,7.3 -5.8,10.8 -1,5.9 0.6,10.4 1.9,13 0.6,1.3 1.3,2.3 1.7,2.9 0.4,0.6 0.7,0.9 0.7,0.9 0,0 -0.5,-1.5 -1,-4.3 -0.4,-2.7 -0.8,-6.9 0.9,-11.4 0.7,-1.8 1.7,-3.7 3.2,-5.4 1.5,6.1 3,12.1 4.5,17.6 1.1,4.3 2.2,8.5 3.3,12.4 -4.9,0.4 -10,-0.4 -14.4,-2.4 z m 36.8,-14.2 c -0.3,4.5 -2.9,8.9 -7,11.7 -3.6,2.5 -8,4.1 -12.7,4.7 -1.1,-4.1 -2.3,-8.3 -3.6,-12.8 -1.7,-5.9 -3.4,-12.2 -5.1,-18.8 1.8,-1.6 4,-2.9 6.6,-3.6 5.9,-1.6 13.3,0.3 18.1,6.8 2.4,3.3 4,7.6 3.7,12 z"
     id="path134" /><g
     id="g148">
	<g
   id="g140">
		<polygon
   class="st7"
   points="292.4,357.4 321.4,357 307.2,382.4 "
   id="polygon136" />
		<polygon
   class="st7"
   points="400.2,417.9 385.3,392.9 371.1,418.2 "
   id="polygon138" />
	</g>
	<g
   id="g146">
		
			<rect
   x="326.70001"
   y="380.60001"
   transform="matrix(0.4894,-0.872,0.872,0.4894,-161.3938,494.0981)"
   class="st11"
   width="29.1"
   height="8.5"
   id="rect142" />
		
			<rect
   x="339.29999"
   y="387.70001"
   transform="matrix(0.4894,-0.872,0.872,0.4894,-161.0839,508.6977)"
   class="st11"
   width="29.1"
   height="8.5"
   id="rect144" />
	</g>
</g></g>
</svg>
