<?xml version="1.0" encoding="UTF-8" standalone="no"?>
<svg
   xmlns:dc="http://purl.org/dc/elements/1.1/"
   xmlns:cc="http://creativecommons.org/ns#"
   xmlns:rdf="http://www.w3.org/1999/02/22-rdf-syntax-ns#"
   xmlns:svg="http://www.w3.org/2000/svg"
   xmlns="http://www.w3.org/2000/svg"
   xmlns:sodipodi="http://sodipodi.sourceforge.net/DTD/sodipodi-0.dtd"
   xmlns:inkscape="http://www.inkscape.org/namespaces/inkscape"
   version="1.1"
   id="Layer_1"
   x="0px"
   y="0px"
   viewBox="0 0 1000 1000"
   xml:space="preserve"
   sodipodi:docname="portada_2.svg"
   width="1000"
   height="1000"
   inkscape:export-filename="C:\Users\Bryan Silva\Documents\MEGA\Cursos - Certificados\Next U\Desarrollador Web\04 Tecnologías Frontend\Proyecto\imagenes\portada_2.png"
   inkscape:export-xdpi="96"
   inkscape:export-ydpi="96"
   inkscape:version="1.0.2-2 (e86c870879, 2021-01-15)"><metadata
   id="metadata345"><rdf:RDF><cc:Work
       rdf:about=""><dc:format>image/svg+xml</dc:format><dc:type
         rdf:resource="http://purl.org/dc/dcmitype/StillImage" /><dc:title></dc:title></cc:Work></rdf:RDF></metadata><defs
   id="defs343" /><sodipodi:namedview
   pagecolor="#ffffff"
   bordercolor="#666666"
   borderopacity="1"
   objecttolerance="10"
   gridtolerance="10"
   guidetolerance="10"
   inkscape:pageopacity="0"
   inkscape:pageshadow="2"
   inkscape:window-width="1366"
   inkscape:window-height="705"
   id="namedview341"
   showgrid="false"
   inkscape:zoom="0.37223429"
   inkscape:cx="392.08474"
   inkscape:cy="536.82713"
   inkscape:window-x="-8"
   inkscape:window-y="-8"
   inkscape:window-maximized="1"
   inkscape:current-layer="Layer_1" />
<style
   type="text/css"
   id="style2">
	
		.st0{fill-rule:evenodd;clip-rule:evenodd;fill:#F45B49;stroke:#1C2628;stroke-width:2.13;stroke-linecap:round;stroke-linejoin:round;}
	.st1{fill-rule:evenodd;clip-rule:evenodd;fill:#F3A13B;}
	
		.st2{fill-rule:evenodd;clip-rule:evenodd;fill:#1C2628;stroke:#1C2628;stroke-width:2.13;stroke-linecap:round;stroke-linejoin:round;}
	.st3{fill:none;stroke:#1C2628;stroke-width:2.13;stroke-linecap:round;stroke-linejoin:round;}
	.st4{fill:#F3A13B;}
	.st5{fill:#1C2628;stroke:#1C2628;stroke-width:2.13;stroke-linecap:round;stroke-linejoin:round;}
	
		.st6{fill-rule:evenodd;clip-rule:evenodd;fill:#FAFCFF;stroke:#1C2628;stroke-width:2.13;stroke-linecap:round;stroke-linejoin:round;}
	.st7{fill-rule:evenodd;clip-rule:evenodd;fill:#FB564C;}
	.st8{fill-rule:evenodd;clip-rule:evenodd;fill:#FAF6EB;}
	
		.st9{fill-rule:evenodd;clip-rule:evenodd;fill:#FAF6EB;stroke:#1C2628;stroke-width:2.13;stroke-linecap:round;stroke-linejoin:round;}
	
		.st10{fill-rule:evenodd;clip-rule:evenodd;fill:#47584E;stroke:#1C2628;stroke-width:2.13;stroke-linecap:round;stroke-linejoin:round;}
	
		.st11{fill-rule:evenodd;clip-rule:evenodd;fill:#F3A140;stroke:#1C2628;stroke-width:2.13;stroke-linecap:round;stroke-linejoin:round;}
	.st12{fill:#49574E;}
	.st13{fill:none;stroke:#FAF6EB;stroke-width:2.13;stroke-linecap:round;stroke-linejoin:round;}
	.st14{fill:#FAF6EB;stroke:#1C2628;stroke-width:2.13;stroke-linecap:round;stroke-linejoin:round;}
	.st15{fill:#F45B49;stroke:#1C2628;stroke-width:2.13;stroke-linecap:round;stroke-linejoin:round;}
	.st16{fill:none;stroke:#FFFFFF;stroke-width:2.13;stroke-linecap:round;stroke-linejoin:round;}
	
		.st17{fill-rule:evenodd;clip-rule:evenodd;fill:none;stroke:#FEFEFE;stroke-width:2.13;stroke-linecap:round;stroke-linejoin:round;}
	
		.st18{fill-rule:evenodd;clip-rule:evenodd;fill:none;stroke:#1C2628;stroke-width:2.13;stroke-linecap:round;stroke-linejoin:round;}
	.st19{fill-rule:evenodd;clip-rule:evenodd;fill:#49574E;}
	.st20{fill:#F55C4A;}
	.st21{fill:#FAF6EB;}
	
		.st22{fill-rule:evenodd;clip-rule:evenodd;fill:#47584E;stroke:#FAF6EB;stroke-width:2.13;stroke-linecap:round;stroke-linejoin:round;}
	.st23{fill-rule:evenodd;clip-rule:evenodd;fill:#1C2628;}
	.st24{fill-rule:evenodd;clip-rule:evenodd;fill:#F7AA9A;}
	
		.st25{fill-rule:evenodd;clip-rule:evenodd;fill:none;stroke:#FAF6EB;stroke-width:2.13;stroke-linecap:round;stroke-linejoin:round;}
	.st26{clip-path:url(#SVGID_2_);}
	.st27{clip-path:url(#SVGID_4_);}
	
		.st28{fill-rule:evenodd;clip-rule:evenodd;fill:none;stroke:#FFFDFD;stroke-width:2.13;stroke-linecap:round;stroke-linejoin:round;}
	.st29{clip-path:url(#SVGID_6_);}
	.st30{fill:#FB564C;}
	.st31{clip-path:url(#SVGID_8_);}
	.st32{clip-path:url(#SVGID_10_);}
	.st33{fill:#F3A140;stroke:#1C2628;stroke-width:2.13;stroke-linecap:round;stroke-linejoin:round;}
	
		.st34{clip-path:url(#XMLID_3_);fill-rule:evenodd;clip-rule:evenodd;fill:none;stroke:#1C2628;stroke-width:2.13;stroke-linecap:round;stroke-linejoin:round;}
	.st35{fill:none;stroke:#000000;stroke-width:6;stroke-linecap:round;stroke-linejoin:round;}
	.st36{fill-rule:evenodd;clip-rule:evenodd;fill:#F55C4A;}
	.st37{fill:#47584E;stroke:#1C2628;stroke-width:2.13;stroke-linecap:round;stroke-linejoin:round;}
	.st38{fill:#1C2628;}
</style>
<g
   id="g338"
   transform="translate(-40.297201,-8)">
	<path
   class="st0"
   d="m 319.2,847.5 c 0,0 -25.3,40.3 -22.2,48.7 3.5,9.7 29,39 29,39 l 72.7,-1.9 -32.4,-11 -17.5,-29.6 21.1,-38.6 z"
   id="path4" />
	<g
   id="g18">
		<path
   class="st1"
   d="m 412.5,932.5 -44.5,1 -85.2,-1.2 8.3,-43.7 37.9,-1 c 0,0 -1.3,-10 8.6,-9.6 7.6,0.3 30,23.5 50.7,29.9 28.4,8.8 24.2,24.6 24.2,24.6 z"
   id="path6" />
		<path
   class="st2"
   d="m 412,926.8 -96.3,-0.5 c -2.8,0 -5,2 -5.1,4.5 v 1.6 c 0,2.5 2.2,4.5 5,4.5 l 96.3,0.5 c 2.8,0 5,-2 5.1,-4.5 v -1.6 c 0,-2.5 -2.2,-4.5 -5,-4.5 z"
   id="path8" />
		<path
   class="st2"
   d="m 323.8,937 -45.5,-0.7 2.8,-23.9 c 0,0 23.1,-1.3 31,6.1 8,7.6 11.7,18.5 11.7,18.5 z"
   id="path10" />
		<path
   class="st2"
   d="m 392.8,909.3 -53.4,-32.7 c 0,0 -8.5,1.3 -10.7,4.8 -2.2,3.4 1.7,8.9 1.7,8.9 0,0 30.5,20.4 43.5,24.5 9.1,2.9 18.9,-5.5 18.9,-5.5 z"
   id="path12" />
		<path
   class="st3"
   d="M 344.8,896.4 326.2,931"
   id="path14" />
		<path
   class="st3"
   d="m 291.1,888.6 -4.5,31.7"
   id="path16" />
	</g>
	<path
   class="st4"
   d="M 582.1,480.4 C 548,530.1 501.9,582.9 424.7,624.4 347.5,665.9 238.7,696 190.6,652.7 142.4,609.9 155.6,493.1 164.1,402.6 172.6,312.6 177,249 203.5,196.2 230,144 278.2,102.5 328.4,98.1 378,93.6 429.5,126.8 509.7,127.5 590,128.2 699,96.4 729.1,126 c 30.1,29.6 -19.2,120.6 -54.8,189.1 -35.5,68.4 -58.1,115.5 -92.2,165.3 z"
   id="path20" />
	<g
   id="g36">
		<path
   class="st0"
   d="m 736.2,118.6 c -6.9,-6.9 -68.2,36.8 -68.2,36.8 0,0 -38.5,109.5 -48,130.9 -9.6,21.6 -44.4,78.4 -44.4,78.4 0,0 -70.3,-4.6 -103.6,24.6 -19.5,17.1 -42.3,80.3 -42.3,80.3 0,0 -31.6,5.8 -49.2,-10.3 -10.1,-9.2 -21.1,-36.1 -28.3,-48.6 -5.4,-9.2 -8.4,-5.8 -8.4,-5.8 l 7.5,49.6 -18,-3.8 19.9,32 c 0,0 66.3,57.6 92.4,40.4 26.1,-17.2 46.3,-47.7 46.3,-47.7 l 0.1,73.1 122.9,-40.7 1.4,-79.3 c 0,0 42.4,-66.5 61.7,-136.9 9.1,-33.4 19.6,-101.2 19.6,-101.2 0,0 40.3,-12.6 45.3,-43.1 3.2,-19.7 1.6,-20.4 -6.7,-28.7 z"
   id="path22" />
		<g
   id="g26">
			<path
   class="st5"
   d="m 732.6,128.3 c -4,-2.1 -8.5,-2.5 -12.4,-1.6 -2.3,0.5 -4.3,1.4 -6,2.5 -0.1,-1 -0.3,-2 -0.4,-3.1 -0.2,-2 -0.4,-4 -0.6,-6 1.9,-1.7 3.7,-3.4 5.4,-5.4 4.1,-4.6 7.1,-10.2 8,-16.4 0.9,-6.1 1.6,-12.3 -0.1,-17.9 -0.4,-1.5 -0.9,-2.4 -1.8,-4.3 -0.3,-0.7 -0.9,-2 -1.7,-3.1 -0.8,-1.1 -2.3,-2 -4,-1.9 -3.3,0.4 -4.9,2.3 -6,3.7 -0.5,0.8 -0.9,1.5 -1.3,2.3 -0.2,0.4 -0.3,0.7 -0.5,1 l -0.1,0.2 c -0.1,0.2 -0.1,0.2 -0.1,0.4 l -0.2,0.6 c -1,3.1 -1,6 -0.9,8.8 0,2.7 0.1,5.4 0.1,8.1 -0.1,4.2 0.1,8.4 0.3,12.5 -1.5,1.7 -3,3.3 -4.7,4.8 l -3,2.7 c -1,0.9 -2.1,1.9 -3.2,3 -4.2,4.3 -7.8,9.3 -10,15.1 -2.3,5.7 -2.5,12.7 0.2,18.4 2.6,5.7 7.4,9.7 12.5,12 5,2.2 10.2,3.1 15.3,3 0.4,2.7 0.7,5.2 1,7.7 1.3,6.5 -1.2,12.1 -5.3,13.9 -3,1.2 -5.8,0.4 -7.6,-0.9 0.2,0 0.4,0.1 0.6,0.1 3,0.2 5.6,-2 5.8,-5 0.2,-3 -2,-5.5 -5,-5.8 -3,-0.2 -5.5,2 -5.8,5 0,0.2 0,0.5 0,0.7 v 0 c 0,0 0,0 0,0 0.1,1.1 0.5,2.2 1.2,3 0.2,0.3 0.3,0.5 0.6,0.8 0.8,1.1 2.1,2.3 4,3.1 1.9,0.8 4.2,1.2 6.8,0.5 2.6,-0.7 5.1,-2.8 6.4,-5.8 0.6,-1.5 1.1,-3.1 1.2,-4.8 0,-1.8 -0.1,-3.4 -0.3,-5.1 -0.3,-2.4 -0.6,-4.9 -1,-7.5 4.5,-0.4 8.9,-1.7 12.8,-3.7 4.4,-2.5 7.9,-6.5 9.3,-11.2 1.6,-4.7 1.3,-9.7 -0.4,-14.1 -1.8,-4.4 -5,-8.2 -9.1,-10.3 z M 715.1,84.9 c 0.9,-2.1 2.7,-7.9 6,-6.7 2.1,0.8 2.2,3.6 2.1,5.5 -0.3,4.3 -1.5,8.6 -3.8,12.3 -2.2,3.6 -4.4,6.9 -6.9,10.2 -0.1,-3.2 -0.1,-6.5 0.1,-9.7 0.2,-4 1.1,-8 2.5,-11.6 z m -10.9,75.9 c -4.1,-2.4 -7.6,-6 -9.1,-10.3 -1.5,-4.3 -0.9,-8.9 1.2,-13.2 2.2,-4.2 5.7,-7.9 9.5,-11.2 0.9,-0.8 1.9,-1.6 3,-2.4 l 1.6,-1.2 c 0.4,-0.3 0.8,-0.6 1.1,-0.9 0.2,1.6 0.3,3.2 0.5,4.7 0.2,1.4 0.3,2.7 0.5,4.1 -3.3,2.6 -5.5,6.1 -6.4,9.2 -1.5,5.3 -0.6,9.4 0.3,11.9 0.4,1.3 0.9,2.2 1.2,2.8 0.3,0.6 0.5,0.9 0.5,0.9 0,0 -0.3,-1.4 -0.4,-4 -0.1,-2.5 0,-6.3 2,-10.2 0.8,-1.6 2,-3.2 3.5,-4.5 0.7,5.7 1.5,11.2 2.2,16.4 0.5,4 1.1,7.9 1.6,11.6 -4.5,-0.2 -8.9,-1.4 -12.8,-3.7 z m 34.9,-8.9 c -0.8,4 -3.6,7.8 -7.6,9.8 -3.5,1.9 -7.7,2.8 -12,2.9 -0.6,-3.8 -1.2,-7.8 -1.9,-12 -0.9,-5.5 -1.8,-11.4 -2.6,-17.5 1.8,-1.2 3.9,-2.2 6.4,-2.6 5.5,-0.8 12,1.7 15.6,8.1 1.8,3.2 2.8,7.3 2.1,11.3 z"
   id="path24" />
		</g>
		<path
   class="st0"
   d="m 752.5,117.2 -0.8,-1.9 c -1.2,-2.9 -4.5,-4.3 -7.4,-3.1 l -16.9,6.5 c -2.9,1.1 -4.3,4.3 -3.1,7.2 l 0.7,1.9 c 1.2,2.9 4.5,4.3 7.4,3.1 l 16.9,-6.5 c 3,-1.2 4.4,-4.4 3.2,-7.2 z"
   id="path28" />
		<path
   class="st0"
   d="m 752.6,130.4 -0.8,-1.9 c -1.2,-2.9 -4.5,-4.3 -7.4,-3.1 l -16.9,6.5 c -2.9,1.1 -4.3,4.3 -3.1,7.2 l 0.8,1.9 c 1.2,2.9 4.5,4.3 7.4,3.1 l 16.9,-6.5 c 2.9,-1.1 4.3,-4.3 3.1,-7.2 z"
   id="path30" />
		<path
   class="st0"
   d="m 752,145 -0.8,-1.9 c -1.2,-2.9 -4.5,-4.3 -7.4,-3.1 l -16.9,6.5 c -2.9,1.1 -4.3,4.3 -3.1,7.2 l 0.8,1.9 c 1.2,2.9 4.5,4.3 7.4,3.1 l 16.9,-6.5 c 2.8,-1.1 4.2,-4.3 3.1,-7.2 z"
   id="path32" />
		<path
   class="st0"
   d="m 692.7,178.5 c 1,-7 2,-21.1 -3,-26.7 -5,-5.6 12.4,-18.8 7.5,-24.9 -8.1,-10 -27.5,28.4 -27.5,28.4"
   id="path34" />
	</g>
	<path
   class="st2"
   d="m 504.2,311.3 c -9.7,-31.4 3.1,-55.6 47.9,-49.9 5.2,0.7 11.4,1.3 16.1,4 21.2,12.4 17.2,26.8 19.8,29.7 7.6,8.7 11.2,42.2 14.4,51.6 l -105,-1.1 z"
   id="path38" />
	<path
   class="st0"
   d="m 531.2,766.1 c 0,0 16.6,82.9 31.2,128.2 10.5,32.6 15.7,45.3 -9.6,47.9 -25.4,2.6 -52.3,-1.2 -52.3,-1.2 l -46.3,5 c 0,0 -17.6,-0.6 0.4,-13 17.8,-12.3 46.9,-14.8 54.7,-31 7.7,-16.4 -41.9,-108 -41.9,-108 z"
   id="path40" />
	<path
   class="st0"
   d="m 808.9,541.7 c 0,0 38.1,-38.6 59.5,-67.1 17.2,-23 19.2,-31.8 38.1,-22.8 17.3,8.2 85.5,-21.9 90.4,-6.8 5.6,17.3 -59.6,38.5 -101.7,68.2 -31.4,22.1 -42.2,56.6 -42.2,56.6 z"
   id="path42" />
	<path
   class="st0"
   d="m 86.9,702.7 c -6,4.5 -13.4,9.5 -17.4,16.2 -0.4,0.6 -6.9,6.7 -4.6,7.6 8.8,3.5 21.9,-12.2 27.8,-16.2 2.4,-1.6 4.6,-3.6 7,-5.2 1,-0.7 3.4,-3.3 3,-2.1 -1.9,5.7 -10.8,9.9 -14.4,14.7 -6.8,9.1 5.2,4.4 8.9,1.2 1.8,-1.5 3.7,-2.8 5.5,-4.3 2.4,-1.9 4.5,-4.1 6.7,-6.1 3.6,-3.3 7.5,-6.2 11.6,-8.9"
   id="path44" />
	<path
   class="st2"
   d="m 232.3,275.4 c 0.2,-11.2 -17.8,-16.6 -33,-8.3 -15.2,8.3 -16.1,32.5 -18.8,37.6 -15,28.6 7.5,51.3 42,55.6 10,1.2 42.8,-12.1 41.5,-24.4 -1.3,-12.4 -38,-6.3 -40.6,-17.6"
   id="path46" />
	<path
   class="st0"
   d="m 175.3,578.2 c 0,0 -9.6,108.8 -19.1,120.3 -5.2,6.3 -73.3,9.9 -73.3,9.9 0,0 6.8,5.1 7.1,9.2 0.3,4.1 -2.5,5.5 -2.5,5.5 0,0 -18.3,-5.3 -20.5,-10.9 -1.4,-3.6 13.8,-15.4 20.6,-19.4 17.5,-10.2 35,-10.6 39,-21.6 4,-11 12.9,-99.8 12.9,-99.8 z"
   id="path48" />
	<path
   class="st0"
   d="m 239.9,872.8 c 0,0 -39,67.4 -34.5,79 L 317.6,955 271,921 290.6,879.4 Z"
   id="path50" />
	<path
   class="st0"
   d="m 559.2,332.5 -0.4,27.6 7,8.1 c 0,0 3.4,27.5 -7.5,33.9 -11.9,7.1 -38.7,-6.8 -47.8,-9.1 -8.2,-2.1 4.9,-19.3 4.9,-19.3 l 0.9,-31.7 -0.8,-12.3 z"
   id="path52" />
	<path
   class="st0"
   d="m 564.8,316.1 c 1.9,-6.9 1.2,-20.7 -0.5,-27 -3.1,-11.4 -6.3,-6.4 -17.9,-9.6 -12.9,-3.6 -19.2,-8.7 -27.6,1.6 -3.3,4 -13,19 -14.5,24.4 -5.3,19.3 4.9,39 22.8,44 11.5,3.2 20.9,2.2 29.3,-6 4.9,-4.5 6.5,-20.5 8.4,-27.4 z"
   id="path54" />
	<path
   class="st6"
   d="m 538.8,314.3 c 0.9,-2.7 -1.6,-5.9 -5.5,-7.2 -3.9,-1.3 -7.8,-0.2 -8.7,2.5 -0.9,2.7 1.6,5.9 5.5,7.2 4,1.3 7.8,0.2 8.7,-2.5 z"
   id="path56" />
	<path
   class="st6"
   d="m 515.5,303.6 c 0.9,-2.7 -1.6,-5.9 -5.5,-7.2 -3.9,-1.3 -7.8,-0.2 -8.7,2.5 -0.9,2.7 1.6,5.9 5.5,7.2 4,1.3 7.8,0.1 8.7,-2.5 z"
   id="path58" />
	<path
   class="st7"
   d="m 555.2,363.3 2.8,-28.2 c 0,0 -22.7,-5 -28.2,0.9 -5.4,5.9 0.3,25.3 0.3,25.3 l 13.7,2.1"
   id="path60" />
	<path
   class="st2"
   d="m 578.5,313.2 c -5.4,9.6 -14.5,-12 -14.5,-12 l -36.7,-8.7 -2.6,-18.7 -8.6,20.9 -13.1,-0.3 c 0,0 10.4,-26 13,-28.5 10.7,-10.2 28.9,-9.7 40.7,0.1 9.9,8.2 33,27.4 21.8,47.2 z"
   id="path62" />
	<path
   class="st0"
   d="m 561.2,318.1 c 2.6,-3.1 7.7,0 8.7,3 2,6.2 -2.7,16.7 -12.4,10.4"
   id="path64" />
	<path
   class="st2"
   d="m 526.6,315.4 c 1.9,1.2 4.2,0.9 5.2,-0.6 1,-1.5 0.2,-3.7 -1.7,-4.9 -1.9,-1.2 -4.2,-0.9 -5.2,0.6 -1,1.5 -0.2,3.7 1.7,4.9 z"
   id="path66" />
	<path
   class="st2"
   d="m 508.2,303.9 c 1.2,-1.9 0.9,-4.9 -4.1,-5.8 -1.8,-0.3 -1.6,0.6 -2.9,2.4 -1.2,1.9 0.4,3.9 1.9,4.9 1.6,1 3.9,0.4 5.1,-1.5 z"
   id="path68" />
	<path
   class="st8"
   d="m 415.8,602 c -12.6,5.8 -12.5,-17.7 -4,-23.3 15.7,-10.3 31.1,10.9 4,23.3 z"
   id="path70" />
	<path
   class="st3"
   d="m 563.8,324.2 c -0.2,0.2 -0.4,0.4 -0.5,0.7"
   id="path72" />
	<path
   class="st9"
   d="m 906.6,523.9 c 0,0 -1.1,1.7 -3.1,4.7 C 889.6,549.7 831,634 775.6,647 c -12.5,2.9 -27.6,2.9 -43.8,1.1 -65.5,-7.5 -149.1,-45.6 -150.4,-46.2 v 0 l -59.7,84.8 43.4,124.9 -21.3,3.2 -73.6,11.2 c 0,0 -59.1,-102.1 -56.9,-127.3 3.5,-40.8 77.3,-173.8 77.3,-173.8 l 66.2,-18.3 62.8,-17.4 64.2,31.3 3.6,1.7 82.6,27.7 79.3,-76.5 z"
   id="path74" />
	<path
   class="st9"
   d="m 637.3,468.1 c 0,0 -31.9,6 -46.5,8.8 -10.7,2 -22.8,10.9 -48.4,17.8 -1.7,0.5 -3.5,0.9 -5.3,1.4 -11.7,2.9 -47.2,9 -47.2,9 l -2.8,-42.7 -5.6,-15.2 c -2.6,-7.1 -2.6,-14.8 -0.1,-21.9 l 11.9,-33 7.9,-22.1 14,-4.1 -3,23.9 41.6,-0.1 10.2,-26.4 13.2,-1.4 0.7,11 c 1,15.2 8.9,29.2 21.3,38 l 17.7,12.5 3.1,6.7 z"
   id="path76" />
	<path
   class="st10"
   d="M 446.6,720.9 C 437,757.5 387.7,857.8 387.7,857.8 L 327,852 l -15,22 -90.6,-2.4 11.7,-25.2 56.1,-121.1 -80.3,-104.6 3.4,-52.4 0.2,-3.4 55.2,-5.4 64.4,-10.1 c 0,-0.1 124.1,134.9 114.5,171.5 z"
   id="path78" />
	<path
   class="st2"
   d="m 315.6,732.3 c -1.6,14.1 -6.8,12.6 -17.4,42.5 -8.8,24.6 -5.6,26.7 -12.5,36.9 -11.5,17 -29.2,24.8 -37.6,28.6 -6.3,2.8 -11.1,4.9 -14.9,6.1 L 289.3,725.3 209,620.7 l 3.4,-52.4 c 10.2,1.3 22.2,3.8 36.5,7.6 17.4,23.4 20.1,41.4 18.8,54 -1,9.8 -4.4,16.4 -0.7,25.1 5.2,12.4 17.3,10.9 30,22.3 15.6,14.3 20.5,38.2 18.6,55 z"
   id="path80" />
	<path
   class="st10"
   d="m 318.9,864 c 5,21 -14,22 -14,22 l -74.7,-0.8 c -6.6,0 -12,-5.4 -12,-12 v 0 c 0,-6.6 5.4,-12 12,-12"
   id="path82" />
	<path
   class="st10"
   d="m 383,840.2 c 6,0 10.9,4.9 10.9,10.9 v 0 c 0,6 -4.9,10.9 -10.9,10.9 h -51 c -6,0 -5.1,-10.1 -5.1,-10.1"
   id="path84" />
	<path
   class="st11"
   d="m 198.2,595.1 0.1,0.8 -1.2,27.8 120.2,-25.6 2.4,-26.8 c -8.6,2.1 -23.9,0 -48.6,4.5 -31.8,5.8 -40.6,18.7 -72.9,19.3 z"
   id="path86" />
	<path
   class="st11"
   d="m 320.9,571.1 8.5,20.7 39.3,-15.5 -2.5,-18.7 c -14.7,5.4 -29.7,9.6 -45.3,13.5 z"
   id="path88" />
	<path
   class="st9"
   d="m 361.8,523.9 -4.6,-35.3 v 0 l -1.8,-13.7 -4.1,-31.3 v 0 l -4.8,-36.1 c 0,0 19.6,-35.6 27.9,-83.8 2.7,-15.5 3.8,-34.9 4.1,-54.1 0.1,-5.1 0.1,-10.2 0,-15.2 -0.2,-34.5 -2.6,-64.6 -2.6,-64.6 l -58,2.9 c 0,0 0,48 -7.8,88.8 -7.8,40.7 -20.1,74.1 -20.1,74.1 l -18.8,16.3 -47,10.6 c 0,0 -62.4,12.4 -72,41.7 -4.6,13.9 -8.4,31.5 -11.5,48.8 -0.6,3.3 -1.1,6.5 -1.6,9.7 -1.8,10.8 -3.2,21.2 -4.3,30 -0.5,3.6 -0.9,6.9 -1.2,9.9 -1.2,9.9 -1.8,16.2 -1.8,16.2 l -18.6,113.1 63,3.8 12,-74 6.2,-45.9 3.9,59.6 c 32.3,-0.6 48.9,-17.5 81.1,-19.1 26.4,-1.3 31.6,-2.5 40.3,-4.6 0,0 31.9,-8.4 46.6,-13.9 z"
   id="path90" />
	<g
   id="g106">
		<g
   id="g104">
			<polygon
   class="st12"
   points="307.7,348.9 309,364.3 297,374.1 312.1,377.7 317.7,392.1 325.7,378.9 341.2,378 331.1,366.3 335,351.3 320.7,357.3 "
   id="polygon92" />
			<path
   class="st12"
   d="m 378.5,269.6 -3.2,-0.6 -1.2,1 -6.6,5.5 -0.5,-10.1 -8.6,-5.4 9.5,-3.6 2.4,-9.8 5.3,6.7 1,1.2 1.8,-0.1 c 0.2,5 0.2,10.1 0.1,15.2 z"
   id="path94" />
			<path
   class="st12"
   d="m 361.8,523.9 c -1.2,0.2 -2.6,0 -3.6,-0.8 l -19.6,-13.6 -15.6,5.9 -6.7,2.6 c -1.7,0.6 -3.7,0.3 -5,-1 -1.4,-1.3 -1.9,-3.2 -1.3,-4.9 l 6.9,-22.9 -14.9,-18.6 c -0.7,-0.9 -1.1,-2 -1.1,-3 0,-0.7 0.1,-1.4 0.4,-2 0.8,-1.7 2.4,-2.8 4.3,-2.8 l 23.9,-0.5 13.1,-19.9 c 1,-1.5 2.8,-2.4 4.6,-2.2 1.8,0.2 3.4,1.5 4,3.2 l 0.1,0.3 v 0 l 4.1,31.3 -1.4,-0.4 c -1.5,-0.4 -2.8,-1.6 -3.3,-3.1 l -3.1,-8.7 -2.4,-6.9 -9.1,13.9 c -0.9,1.3 -2.4,2.2 -4,2.2 l -16.6,0.3 10.4,13 c 1,1.2 1.3,2.9 0.9,4.4 l -4.8,15.9 6.9,-2.6 8.7,-3.3 c 1.5,-0.6 3.2,-0.4 4.5,0.6 l 13.6,9.5 -0.8,-16.6 c 0,-0.8 0.1,-1.6 0.4,-2.3 0.3,-0.7 0.8,-1.3 1.5,-1.8 l 0.4,-0.3 z"
   id="path96" />
			<polygon
   class="st12"
   points="243.4,547.3 246.6,535 232.3,541 219.3,532.6 220.6,548 208.6,557.9 221,560.8 223.7,561.4 229.3,575.9 237.4,562.6 252.8,561.7 242.7,550 "
   id="polygon98" />
			<polygon
   class="st12"
   points="208.2,418.7 209,428.8 201.2,435.2 211,437.5 214.7,447 220,438.3 230.1,437.7 223.5,430 226,420.2 216.7,424.2 "
   id="polygon100" />
			<path
   class="st12"
   d="m 164,480.8 -14.6,18.9 7.3,22.7 c 0.6,1.8 0.1,3.7 -1.2,5 -1.3,1.3 -3.3,1.7 -5,1.1 l -17,-6.1 c 0.4,-3 0.8,-6.3 1.2,-9.9 l 9.8,3.5 -5.1,-15.8 c -0.5,-1.5 -0.2,-3.2 0.8,-4.4 l 10.1,-13.1 H 139 c 0.5,-3.2 1.1,-6.4 1.6,-9.7 h 19.5 c 1.8,0 3.5,1.1 4.3,2.7 0.9,1.6 0.7,3.6 -0.4,5.1 z"
   id="path102" />
		</g>
	</g>
	<path
   class="st0"
   d="m 229.2,337.2 -1.9,41.3 c 0,0 28.7,3.9 37.1,0.3 8.4,-3.6 21.5,-10.3 21.5,-10.3 l -16.6,-39.3 z"
   id="path108" />
	<path
   class="st3"
   d="m 325.7,596.5 c 0,0 82.4,105.5 78.1,125.6 -4.3,20.1 -85.1,142.1 -85.1,142.1 l -69,-2.2"
   id="path110" />
	<polygon
   class="st2"
   points="263,405.5 263.7,392.5 250.7,401 "
   id="polygon112" />
	<path
   class="st9"
   d="m 264.4,378.7 -37.6,-11.8 -4.6,13.4 c -1.7,5 0.9,10.5 5.9,12.3 l 22.6,8.3 13,-8.4 z"
   id="path114" />
	<polygon
   class="st2"
   points="270.1,391.4 274.1,402.9 284.2,392.9 "
   id="polygon116" />
	<path
   class="st9"
   d="m 284.5,360.1 -19.1,17.9 4.6,13.3 14.2,1.6 8,-7.8 c 3.7,-3.6 4.2,-9.5 1,-13.6 z"
   id="path118" />
	<path
   class="st3"
   d="m 183.8,448.6 c 0,0 5.5,10.4 10.3,42.3 1.7,11.1 0.3,71.5 0.3,71.5"
   id="path120" />
	<path
   class="st0"
   d="m 228.3,348.1 c -20.8,-6.5 -32.8,-27.4 -26.8,-46.7 3,-9.6 0.6,-21.6 9.3,-25.8 8.8,-4.2 28.8,-0.6 39.2,2.6 20.8,6.5 32.8,27.4 26.8,46.7 -3.3,10.5 -7.1,20.5 -16.9,24.5 -8.3,3.3 -22.1,1.7 -31.6,-1.3 z"
   id="path122" />
	<path
   class="st0"
   d="m 240.5,284.6 c 7.2,-1.8 22.2,-8.8 24.7,-5.3 3.3,4.6 -6.3,12 -7.8,12.4"
   id="path124" />
	<path
   class="st2"
   d="m 256.5,323.6 c -5.7,3.1 -12.3,-4.5 -12.3,-4.5 L 259,308 c 0.1,-0.1 8.2,9.8 -2.5,15.6 z"
   id="path126" />
	<path
   class="st6"
   d="m 225.7,311.4 c -2.6,-1.7 -2.7,-6.1 -0.2,-9.8 2.4,-3.8 6.5,-5.5 9.1,-3.8 2.6,1.7 2.7,6.1 0.2,9.8 -2.5,3.8 -6.5,5.5 -9.1,3.8 z"
   id="path128" />
	<path
   class="st6"
   d="m 238.9,284.3 c -2.4,-1.5 -2.8,-5.1 -0.8,-8.1 2,-2.9 5.5,-4.1 8,-2.5 2.4,1.5 2.8,5.1 0.8,8.1 -2,2.9 -5.6,4 -8,2.5 z"
   id="path130" />
	<path
   class="st7"
   d="m 229.9,355.4 -1.4,-15 c 0,0 17,-12.7 24.2,-7.8 7.2,5 5.8,26.8 5.8,26.8 l -14,5.5"
   id="path132" />
	<path
   class="st2"
   d="m 211.1,269.1 c 3.3,-1.8 -4.6,-4.1 -0.6,-3.6 12.8,1.4 13.1,12.2 9.1,20.8 -3.8,8.2 -9.9,15.3 -9.9,15.3 0,0 17.1,24.6 6.6,35.3 -6.9,7 -19.2,5.7 -23.2,-2.6 -3.3,-6.8 -3.5,-14.3 -2.4,-21.6 1.1,-7.5 5.3,-14.6 6.1,-22"
   id="path134" />
	<path
   class="st2"
   d="m 198.8,285.7 c -30.3,-5.9 -34.8,17.6 -21.2,25.7 -16.5,4 -18,35.6 10.4,35.2 -3.9,3.5 13.9,20.5 20.6,-4.5"
   id="path136" />
	<path
   class="st0"
   d="m 218,334.8 c 0.7,-1 -6.1,1.5 -2.2,10 2.7,6 17.4,7.8 17.1,-3.1"
   id="path138" />
	<path
   class="st3"
   d="m 221.8,342.2 0.9,0.1 h 1.5 l 1.7,-0.6 v 0"
   id="path140" />
	<path
   class="st2"
   d="m 233.8,298.8 c -1.8,-1 -4.1,-0.3 -5,1.6 -0.9,1.8 -0.3,4.1 1.6,5 1.8,1 4.1,0.3 5,-1.6 0.9,-1.8 0.2,-4.1 -1.6,-5 z"
   id="path142" />
	<path
   class="st2"
   d="m 245.4,274.5 c -1.7,-0.9 -3.7,-0.5 -4.4,1 -0.8,1.4 0,3.3 1.7,4.2 1.7,0.9 3.7,0.5 4.4,-1 0.8,-1.4 0,-3.3 -1.7,-4.2 z"
   id="path144" />
	<path
   class="st13"
   d="m 222.2,275.1 c 0.7,-4 -3.2,-7.7 -5.6,-10.4"
   id="path146" />
	<path
   class="st13"
   d="m 190.2,330.5 c -2.6,-5.3 -6.4,-24.6 0.2,-27.8 6,-3 8.6,12 5.9,10.3 -10.3,-6.6 -2.3,-29.3 6.7,-34.1"
   id="path148" />
	<path
   class="st2"
   d="m 251.3,350.4 22.1,-12.3 4.4,15.5 c 0,0 -7.8,0.6 -15,-0.7 -7.1,-1.3 -11.5,-2.5 -11.5,-2.5 z"
   id="path150" />
	<path
   class="st2"
   d="m 221.9,338.8 c 0,-2.9 2.4,-5.2 5.4,-5.2 3,0 5.4,2.3 5.4,5.2 0,2.9 -2.4,5.2 -5.4,5.2 -3,0 -5.4,-2.4 -5.4,-5.2 z"
   id="path152" />
	<path
   class="st3"
   d="m 230.7,338.2 c 7.7,7.7 18.8,26.7 26.3,46.8 6.6,17.8 -20.1,58.7 -21.4,74.6 -1.5,17.1 26,69.6 10.2,100 -13.4,25.8 -39.8,23.2 -53.6,52.3 -13.8,29.1 -27.2,88.9 -91.9,97.8"
   id="path154" />
	<path
   class="st3"
   d="m 502.1,323.5 c 9.1,22.5 -78.7,31.2 -118.9,80.3 -40.2,49.1 -120.4,1 -132.8,20.1"
   id="path156" />
	<path
   class="st3"
   d="m 336.2,839.2 c 0,0 33.9,1.4 41.1,0.5"
   id="path158" />
	<path
   class="st3"
   d="m 117.2,626.5 54.5,7.5"
   id="path160" />
	<path
   class="st3"
   d="m 318.9,216.2 58,-2"
   id="path162" />
	<path
   class="st2"
   d="m 536.6,324.4 c -2.5,5.3 -9.8,3.5 -14.9,5.3 0,0 4,8.8 12.7,4.2 5.7,-3.1 2.2,-9.5 2.2,-9.5 z"
   id="path164" />
	<path
   class="st3"
   d="m 515.6,562.3 c 0,0 19.5,4.9 25.8,11.6 7.2,7.8 31.4,22.9 40,28"
   id="path166" />
	<path
   class="st13"
   d="m 520.4,311.7 c 0,-7.6 6.6,-13.7 14.8,-13.7 8.2,0 14.8,6.1 14.8,13.7 0,7.6 -6.6,13.7 -14.8,13.7 -8.2,0 -14.8,-6.1 -14.8,-13.7 z"
   id="path168" />
	<path
   class="st13"
   d="m 491,302.8 c 0,-7.6 6.6,-13.7 14.8,-13.7 8.2,0 14.8,6.1 14.8,13.7 0,7.6 -6.6,13.7 -14.8,13.7 -8.2,0 -14.8,-6.2 -14.8,-13.7 z"
   id="path170" />
	<path
   class="st0"
   d="m 517.7,312.6 c -6.7,-1.2 -12.6,-5.9 -14.7,-2.5 -2.7,4.4 6.1,11.6 7.5,12"
   id="path172" />
	<path
   class="st13"
   d="m 528,269 c 6,0 5.9,18.3 7,25"
   id="path174" />
	<path
   class="st13"
   d="m 552,261 c 22,21 20,50.5 22.8,65.7"
   id="path176" />
	<path
   class="st13"
   d="m 582.7,302.7 c 2.1,11.6 4.8,23.1 7.3,34.7"
   id="path178" />
	<path
   class="st3"
   d="m 519.5,415 c -2.7,17.8 -12.6,37.2 -21.9,47.2 -1.7,1.8 -4,4 -6.5,5.8"
   id="path180" />
	<path
   class="st3"
   d="m 487.1,436 c 11.3,-15.3 43.8,-48.3 65.3,-32 19.7,14.9 -17,69.5 -28.7,85"
   id="path182" />
	<path
   class="st3"
   d="m 508.9,488.3 c 3.6,-8.2 9.8,-17.2 11.3,-19.3 12.5,-17.7 48.1,-63.1 74.5,-54.7 0.5,0.1 0.9,0.3 1.3,0.5"
   id="path184" />
	<path
   class="st3"
   d="m 604.8,415 c 0.2,3.4 -8.8,42.3 -24.8,63.8"
   id="path186" />
	<path
   class="st3"
   d="m 565.1,476.9 c 1.1,-2.8 2.3,-5.6 3.6,-8.3 7.2,-15.5 17.9,-32.6 31.7,-44.8"
   id="path188" />
	<path
   class="st2"
   d="m 86.1,703.8 h 29.5 c 3.5,0 6.3,2.8 6.3,6.3 v 0 c 0,3.5 -2.8,6.3 -6.3,6.3 H 86.1 c -3.5,0 -6.3,-2.8 -6.3,-6.3 v 0 c 0,-3.5 2.9,-6.3 6.3,-6.3 z"
   id="path190" />
	<path
   class="st3"
   d="m 641,539.1 c 28.3,7.5 117.1,47.9 137,41.6 19.9,-6.4 41.8,-36.4 61.2,-47.8"
   id="path192" />
	<path
   class="st3"
   d="m 491.4,566.5 c 6.7,28.4 -45.2,58.7 -51.6,90.8 -6.8,34.1 25.7,-5 38.2,-5 12.3,0 -5.8,33.7 -8,41.2 -6.5,22.2 -4.9,30.6 6.3,51"
   id="path194" />
	<path
   class="st3"
   d="m 251.2,425.3 c -3.9,1.3 -7.5,-2.4 -3.8,-4.9 5.2,-3.5 5,4.5 3.8,4.9 z"
   id="path196" />
	<path
   class="st1"
   d="m 217.2,789.9 c -4.7,1.9 -4.1,9.1 -6.5,13.5 -4.3,8.1 -12.6,15.3 -20.3,20.1 -9.3,5.7 -21.8,19.7 -25.2,30.1 -4.4,13.6 3.2,28.5 19.5,24.7 15.7,-3.7 14.9,-24 20.4,-35.4 5.4,-11.2 38.7,-38.7 25.2,-51.7 -4.1,-4 -8.8,-3 -13.1,-1.3 z"
   id="path198" />
	<path
   class="st8"
   d="m 419.3,442.1 c -12.6,7.2 -40.2,-7.5 -24.6,-22.2 7.9,-7.5 12.1,2.3 19.4,0 8.4,-2.6 8.2,-14.9 17,-17.6 5.7,-1.8 7,6.6 6.5,10 -1.8,10.7 -8.7,24.3 -18.3,29.8 z"
   id="path200" />
	<line
   class="st3"
   x1="526"
   y1="529.79999"
   x2="637.29999"
   y2="497.70001"
   id="line202" />
	<g
   id="g240">
		<path
   class="st11"
   d="m 503.9,878.4 7.3,41 59.8,-5.5 -14.2,-46.2 z"
   id="path204" />
		<path
   class="st9"
   d="m 546.7,869.7 c 5.2,11 9.2,31.5 12.6,43.6"
   id="path206" />
		<path
   class="st9"
   d="m 536.2,872.5 c 4.1,14.5 10.7,30.6 12.4,45.5"
   id="path208" />
		<path
   class="st9"
   d="m 525.6,874.3 c 4.3,15.2 8.5,31.6 11.9,47"
   id="path210" />
		<path
   class="st9"
   d="m 514.8,876.2 c 3.9,13.7 6.5,29.6 9.6,43.7"
   id="path212" />
		<g
   id="g238">
			<path
   class="st9"
   d="m 492.4,907.1 10.7,-18.4 c 0,0 14.8,-0.1 14.3,3.7 -0.5,3.8 -6.3,19.8 -6.3,19.8 z"
   id="path214" />
			<path
   class="st10"
   d="m 496.9,900.5 28.8,8.9 c 0,0 24.9,5.5 30.1,4.1 5.3,-1.5 4,-5.6 6.9,-7.9 2.9,-2.3 8.4,-1.8 8.4,-1.8 0,0 1.2,5 2.1,16.3 0.9,11.3 -3.3,24.6 -3.3,24.6 l -88.7,3.4 -45.2,0.2 c 0,0 -8.4,-16.9 4.1,-22.3 12.7,-5.5 24.5,-7.3 42.3,-14.6 8.9,-3.7 14.5,-10.9 14.5,-10.9 z"
   id="path216" />
			<path
   class="st9"
   d="m 570.4,940.9 c -2.3,-0.6 -41.6,-1.2 -41.6,-1.2 0,0 -7.1,3.4 -28.9,5.9 -21.8,2.5 -63.9,2 -63.9,2 0,0 8.9,7 28.4,5.5 22.6,-1.7 104.9,-2.3 104.9,-2.3 0,0 4.5,-1.9 4.8,-4.1 0.1,-2.2 -1.2,-5.1 -3.7,-5.8 z"
   id="path218" />
			<path
   class="st14"
   d="m 494.5,911.7 c 0,-1.2 1,-2.2 2.3,-2.2 1.3,0 2.3,1 2.3,2.2 0,1.2 -1,2.2 -2.3,2.2 -1.2,0 -2.3,-1 -2.3,-2.2 z"
   id="path220" />
			<path
   class="st14"
   d="m 480.6,918 c 0,-1.2 1,-2.2 2.3,-2.2 1.3,0 2.3,1 2.3,2.2 0,1.2 -1,2.2 -2.3,2.2 -1.2,0 -2.3,-1 -2.3,-2.2 z"
   id="path222" />
			<path
   class="st14"
   d="m 466.5,923.5 c 0,-1.2 1,-2.2 2.3,-2.2 1.3,0 2.3,1 2.3,2.2 0,1.2 -1,2.2 -2.3,2.2 -1.2,0 -2.3,-1 -2.3,-2.2 z"
   id="path224" />
			<path
   class="st9"
   d="m 491.6,903.7 4.4,6.7"
   id="path226" />
			<path
   class="st9"
   d="m 478.2,910 4.4,6.7"
   id="path228" />
			<path
   class="st9"
   d="m 464.1,915.3 4.4,6.7"
   id="path230" />
			<path
   class="st9"
   d="m 525.3,909.1 c 0,0 -4.8,7.9 0.6,13.7 5.4,5.7 18.2,16.4 18.2,16.4 0,0 -0.2,-8.1 5.8,-11.3 6,-3.1 22.3,-7.1 22.3,-7.1 l 0.9,-8.3 -14,-0.2 c 0,0 -9.6,1.1 -17.6,0 -8.1,-1.1 -16.2,-3.2 -16.2,-3.2 z"
   id="path232" />
			<path
   class="st9"
   d="m 434.1,930.9 c 0,0 4,4.3 13.3,4 9.3,-0.3 15,-0.5 15,-0.5 l 0.5,-5.2 c 0,0 -6.4,1 -6.9,-2.1 -0.5,-3.1 -2,-6.6 -2,-6.6 0,0 -5.3,1.4 -13.8,5 -5,2.1 -6.1,5.4 -6.1,5.4 z"
   id="path234" />
			<path
   class="st3"
   d="m 462.3,929.2 30.1,-2.2 14.8,17.1"
   id="path236" />
		</g>
	</g>
	<g
   id="g278">
		<path
   class="st11"
   d="m 904.5,507.5 51.6,-31.2 -58,-40.6 -29.3,38.3 z"
   id="path242" />
		<path
   class="st9"
   d="m 876.3,481.1 c 5.9,-10.6 20.4,-25.7 28.2,-35.6"
   id="path244" />
		<path
   class="st9"
   d="m 884.7,488.1 c 9.4,-11.8 30.4,-30.6 41.5,-40.6"
   id="path246" />
		<path
   class="st9"
   d="m 892.3,495.6 c 9.8,-12.3 30.4,-27.1 41,-38.8"
   id="path248" />
		<path
   class="st9"
   d="m 900.1,503.3 c 8.9,-11.2 34,-25.1 43.7,-35.8"
   id="path250" />
		<g
   id="g276">
			<path
   class="st9"
   d="m 956.2,476.3 -12.3,17.3 c 0,0 -14.8,-1.2 -13.9,-4.9 0.8,-3.8 8,-19.2 8,-19.2 z"
   id="path252" />
			<path
   class="st10"
   d="M 951.2,482.4 923.3,471 c 0,0 -24.3,-7.7 -29.6,-6.7 -5.4,1 -4.5,5.2 -7.6,7.2 -3.1,2 -15.5,-3.7 -15.5,-3.7 0,0 6.2,-0.3 6.3,-11.6 0.1,-11.3 5.5,-24.2 5.5,-24.2 l 88.7,4.5 45,3.8 c 0,0 6.8,17.5 -6.1,21.9 -13.1,4.3 -25.1,5.1 -43.4,10.8 -9.2,2.8 -15.4,9.4 -15.4,9.4 z"
   id="path254" />
			<path
   class="st9"
   d="m 881.6,435.7 c 2.2,0.8 41.3,4.9 41.3,4.9 0,0 7.4,-2.8 29.3,-3.3 22,-0.5 63.8,3.7 63.8,3.7 0,0 -8.2,-7.8 -27.8,-8 -22.7,-0.3 -104.6,-7.1 -104.6,-7.1 0,0 -4.7,1.5 -5.1,3.6 -0.4,2.2 0.6,5.3 3.1,6.2 z"
   id="path256" />
			<path
   class="st14"
   d="m 954.5,471.5 c -0.1,1.2 -1.2,2.1 -2.5,2 -1.3,-0.1 -2.2,-1.2 -2.1,-2.4 0.1,-1.2 1.2,-2.1 2.5,-2 1.3,0.1 2.2,1.2 2.1,2.4 z"
   id="path258" />
			<path
   class="st14"
   d="m 968.9,466.5 c -0.1,1.2 -1.2,2.1 -2.5,2 -1.3,-0.1 -2.2,-1.2 -2.1,-2.4 0.1,-1.2 1.2,-2.1 2.5,-2 1.3,0.1 2.2,1.1 2.1,2.4 z"
   id="path260" />
			<path
   class="st14"
   d="m 983.5,462.2 c -0.1,1.2 -1.2,2.1 -2.5,2 -1.3,-0.1 -2.2,-1.2 -2.1,-2.4 0.1,-1.2 1.2,-2.1 2.5,-2 1.2,0.1 2.2,1.2 2.1,2.4 z"
   id="path262" />
			<path
   class="st9"
   d="m 956.7,479.8 -3.8,-7.1"
   id="path264" />
			<path
   class="st9"
   d="m 970.6,474.6 -3.8,-7.1"
   id="path266" />
			<path
   class="st9"
   d="m 985.2,470.6 -3.7,-7.1"
   id="path268" />
			<path
   class="st9"
   d="m 923.6,471.3 c 0,0 5.5,-7.5 0.6,-13.7 -4.9,-6.2 -16.7,-17.9 -16.7,-17.9 0,0 -0.5,8.1 -6.8,10.7 -6.3,2.6 -22.8,5.1 -22.8,5.1 l -1.6,8.2 13.9,1.4 c 0,0 9.7,-0.3 17.5,1.6 8,1.9 15.9,4.6 15.9,4.6 z"
   id="path270" />
			<path
   class="st9"
   d="m 1016.5,457.7 c 0,0 -3.6,-4.7 -12.9,-5.2 -9.3,-0.5 -15,-0.8 -15,-0.8 l -1,5.1 c 0,0 6.4,-0.4 6.7,2.7 0.2,3.1 1.4,6.7 1.4,6.7 0,0 5.4,-0.9 14.2,-3.7 5.2,-1.6 6.6,-4.8 6.6,-4.8 z"
   id="path272" />
			<path
   class="st3"
   d="M 988.1,456.9 957.9,456.4 944.8,438"
   id="path274" />
		</g>
	</g>
	<g
   id="g292">
		<path
   class="st1"
   d="m 331.6,957.8 -44.5,1 -85.2,-1.2 8.3,-43.7 37.9,-1 c 0,0 -1.3,-10 8.6,-9.6 7.6,0.3 30,23.5 50.7,29.9 28.4,8.9 24.2,24.6 24.2,24.6 z"
   id="path280" />
		<path
   class="st2"
   d="m 331.1,952.1 -96.3,-0.5 c -2.8,0 -5,2 -5.1,4.5 v 1.6 c 0,2.5 2.2,4.5 5,4.5 l 96.3,0.5 c 2.8,0 5,-2 5.1,-4.5 v -1.6 c 0,-2.4 -2.2,-4.5 -5,-4.5 z"
   id="path282" />
		<path
   class="st2"
   d="m 242.9,962.3 -45.5,-0.7 2.8,-23.9 c 0,0 23.1,-1.3 31,6.1 8,7.7 11.7,18.5 11.7,18.5 z"
   id="path284" />
		<path
   class="st2"
   d="M 311.9,934.7 258.5,902 c 0,0 -8.5,1.3 -10.7,4.8 -2.2,3.4 1.7,8.9 1.7,8.9 0,0 30.5,20.4 43.5,24.5 9.1,2.8 18.9,-5.5 18.9,-5.5 z"
   id="path286" />
		<path
   class="st3"
   d="m 263.9,921.8 -18.5,34.6"
   id="path288" />
		<path
   class="st3"
   d="m 210.2,913.9 -4.5,31.7"
   id="path290" />
	</g>
	<polyline
   class="st3"
   points="208.8,620.6 289.1,725.2 266.9,773.3  "
   id="polyline294" />
	<path
   class="st2"
   d="M 903.5,528.6 C 889.6,549.7 831,634 775.6,647 c -12.5,2.9 -27.6,2.9 -43.8,1.1 9.7,-9.9 25.4,-15.8 39.4,-21 25.3,-9.4 31.1,-4.9 41.1,-13.9 13.5,-12.1 6.5,-23.4 19.5,-45.3 3.9,-6.6 19.9,-31.4 48.4,-37.6 5.4,-1.2 14.4,-2.3 23.3,-1.7 z"
   id="path296" />
	<path
   class="st2"
   d="m 581.4,601.9 -59.7,84.8 43.4,124.9 -21.3,3.2 c -21.5,-9.9 -37.7,-30 -39.9,-50.1 -1.2,-11.2 3.2,-11.1 2.4,-25.4 -1.4,-28.3 -18.7,-33.6 -15.7,-51.2 2.8,-16.5 18.7,-15.8 25.8,-38.6 4.2,-13.6 -0.2,-17.8 3.8,-28.8 3.6,-9.7 12.8,-21.7 38,-31.2 6.7,2.2 15.3,5.9 23.2,12.4 z"
   id="path298" />
	<path
   class="st2"
   d="m 683.8,520.4 c -11.4,5.9 -20.8,7.1 -27.9,6.8 -17.6,-0.8 -25.4,-11.2 -43.5,-8 -13.9,2.4 -16.6,9.8 -26.8,9.4 -11.6,-0.4 -21.3,-10.5 -28.8,-22 l 62.8,-17.4 z"
   id="path300" />
	<path
   class="st2"
   d="m 637.3,468.1 c 0,0 -31.9,6 -46.5,8.8 -10.7,2 -22.8,10.9 -48.4,17.8 -0.8,-3.1 -1.1,-6.4 0.5,-9.1 2.8,-4.9 9,-3.3 19.7,-8 11.3,-5 10.1,-9.2 18.8,-11.7 11.4,-3.2 16.3,3.4 22.8,-0.3 8,-4.6 3.6,-16.2 10.1,-28 1.5,-2.7 3.4,-5.1 5.6,-7.4 z"
   id="path302" />
	<g
   id="g312">
		<path
   class="st0"
   d="m 353,110 c 0,0 2.7,-32.4 -5.1,-40.9 -6.5,-7 -35.7,-14.2 -44.4,-0.4 -8.7,13.8 11,56.1 11,56.1 l 7.3,67.7 54.1,-2.7 C 367.3,148.9 353,110 353,110 Z"
   id="path304" />
		<path
   class="st15"
   d="m 317.1,99.2 c 7.7,-13.4 -0.5,-21.8 -0.5,-21.8 0,0 16.8,1.1 19.5,-7.3 3.6,-11.5 -21.5,-8.7 -21.5,-8.7"
   id="path306" />
		<path
   class="st15"
   d="m 332.2,90 c 1.1,-4.2 -0.7,-9.9 -2.3,-13.8"
   id="path308" />
		<path
   class="st15"
   d="m 341.9,85 c 1,-5.5 -0.2,-12.9 -4.6,-16.8"
   id="path310" />
	</g>
	<g
   id="g318">
		<path
   class="st5"
   d="M 610.7,148.8 596.8,93.1 597.6,92.7 594,78 l -55.7,28.2 3.8,15.4 0.8,-0.4 12.7,51.2 c -3.7,-1 -8.3,0 -12.3,3.1 -5.8,4.6 -7.8,11.8 -4.4,16.2 3.4,4.4 10.9,4.3 16.8,-0.3 5.9,-4.5 7.8,-11.8 4.4,-16.2 -0.1,-0.2 -0.3,-0.3 -0.5,-0.5 l -11.9,-47.8 47.9,-24.4 10.9,44 c -3.7,-1 -8.4,0 -12.4,3.1 -5.9,4.6 -7.8,11.8 -4.4,16.2 3.4,4.4 10.9,4.3 16.8,-0.3 5.9,-4.6 7.8,-11.8 4.4,-16.2 0.1,-0.3 -0.1,-0.4 -0.2,-0.5 z m -63.7,-25.3 -1,-4 47.8,-24.8 1.1,4.3 z"
   id="path314" />
		<path
   class="st5"
   d="m 451.8,207.3 c -0.4,-0.1 -0.9,0 -1.1,0.4 -5.1,7.1 -10.2,11 -15.4,11.6 -0.9,0.1 -1.7,0.1 -2.6,0.1 2.5,-1.4 4.2,-4 4.4,-7 0.3,-4.7 -3.4,-8.8 -8.1,-9 -4.7,-0.3 -8.8,3.4 -9,8.1 -0.3,4.7 3.4,8.8 8.1,9 0.2,0 0.4,0 0.6,0 2.3,0.8 4.6,1.1 6.9,0.8 5,-0.6 10,-4 14.8,-9.9 l -1,18.5 c -5,6.9 -10.1,10.7 -15.2,11.4 -0.9,0.1 -1.7,0.1 -2.6,0.1 2.5,-1.4 4.2,-4 4.4,-7 0.2,-4.7 -3.4,-8.8 -8.1,-9 -4.7,-0.2 -8.8,3.4 -9,8.1 -0.3,4.7 3.4,8.8 8.1,9 0.2,0 0.4,0 0.6,0 1.7,0.6 3.3,0.9 5,0.9 0.6,0 1.2,0 1.9,-0.1 5,-0.6 10,-4 14.8,-9.9 l -1.7,32.4 1.9,0.1 3.1,-57.5 c -0.2,-0.5 -0.4,-0.9 -0.8,-1.1 z"
   id="path316" />
	</g>
	<path
   class="st3"
   d="m 653,332.3 c -7.4,19.7 -15.8,39.1 -25.1,58"
   id="path320" />
	<path
   class="st3"
   d="m 668.5,288.6 c -0.1,4 -0.9,8.1 -2.3,11.8 -0.9,2.2 -2,4.5 -1.8,6.8 2.3,0.9 5.2,-1.3 5,-3.8 -0.5,-0.3 -1.2,0.1 -1.6,0.6 -4,4.3 -6.3,10 -6.4,15.8"
   id="path322" />
	<path
   class="st3"
   d="m 651.9,303.4 c -5.5,13.2 -10.9,26.3 -16.4,39.5"
   id="path324" />
	<line
   class="st3"
   x1="249.7"
   y1="810.40002"
   x2="225.8"
   y2="862"
   id="line326" />
	<path
   class="st3"
   d="m 692.5,624.3 c 3.8,1.3 7.7,2.2 11.6,2.7 6.3,0.8 12.9,0.7 18.9,2.9"
   id="path328" />
	<path
   class="st3"
   d="m 723.1,623 c 9.3,-0.2 18.6,-1.3 27.3,-4.5 4.3,-1.6 8.4,-3.7 12.6,-5.5 10.6,-4.5 22,-6.9 33.3,-8.7"
   id="path330" />
	<path
   class="st3"
   d="m 791,596.6 c -15.9,7.5 -33.4,11.6 -51,12"
   id="path332" />
	<path
   class="st16"
   d="m 246.1,791.6 c -0.9,-0.1 -1.7,0.5 -2.4,1.2 -2.7,2.6 -0.3,5.5 -2.4,8.7"
   id="path334" />
	<path
   class="st3"
   d="m 276.7,633.9 c 5.5,10.9 -7.7,16.1 19.7,30.8"
   id="path336" />
</g>
</svg>
